<?xml version="1.0" encoding="utf-8"?>
<!-- Generator: Adobe Illustrator 26.0.3, SVG Export Plug-In . SVG Version: 6.00 Build 0)  -->
<svg version="1.1" id="Capa_1" xmlns="http://www.w3.org/2000/svg" xmlns:xlink="http://www.w3.org/1999/xlink" x="0px" y="0px"
	 viewBox="0 0 516.55 141.03" style="enable-background:new 0 0 516.55 141.03;" xml:space="preserve">
<style type="text/css">
	.st0{fill:#13A4DE;}
	.st1{fill:#E83E8A;}
	.st2{fill:#FFFFFF;}
</style>
<g>
	<path class="st0" d="M48.09,14.66c-6.49,17.8,2.33,43.93,18.8,57.57s28.06,38.54,19.72,60.79c11.75-3.78,40.19-20.19,40.19-60.62
		C126.79,34.96,91.35,3.85,48.09,14.66z"/>
	<path class="st1" d="M65.89,22.98c-10.91,26.49-4.48,40.34,2.79,48.43c6.59,7.33,28.93,14.7,34.42,38.83
		c-10.32,11.13-24.56,15.89-36.38,16.08c-15.64,0.25-52.41-10.65-52.41-53.41C14.31,43.45,43.43,22.32,65.89,22.98z"/>
	<path class="st2" d="M112.37,33.73c-3.03-3.53-6.48-6.71-10.29-9.48c1.41,5.9,0.06,10.79,0.06,10.79s-32.34,0-34.06,0
		c-0.75,0-1.33,0.66-1.34,1.34c-0.01,0.72,0.53,1.44,1.39,1.44c2.5,0.01,33.19,0,33.19,0c-0.69,2.21-2.99,6.06-3.93,7.11
		c0,0-29.94,0-31.33,0c-0.83,0-1.39,0.7-1.39,1.39c0,0.7,0.54,1.38,1.39,1.39c1.5,0,29.18,0.02,29.18,0.02
		c-1.22,1.61-5.88,6.1-7.49,7.1c0,0-18.91,0-20.07,0c-0.91,0-1.43,0.7-1.44,1.36c-0.02,1.01,0.78,1.44,1.58,1.43
		c1.28-0.01,16.71,0,16.71,0c-3.08,2.87-7.96,6.32-17.11,12.31c-6.7-8.27-11.82-22.01-1.54-46.97c-6.38-0.19-13.31,1.38-19.95,4.41
		c-0.1,15.43,7.55,32.98,19.67,43.75c-10.79,7.15-29.74,22.27-37.25,39.19l0,0.01c3.63,3.69,7.7,6.62,11.87,8.9l0,0
		c-0.1-0.92-0.13-3.09-0.05-3.79c0,0,40.72,0,41.55,0c0.62,0,1.32-0.55,1.32-1.44c0-0.68-0.61-1.34-1.34-1.35H40.32
		c0.04-1.33,0.71-5.54,1.32-7.12c0,0,37.8,0.01,38.55,0c0.92-0.01,1.39-0.76,1.39-1.43c-0.01-0.73-0.68-1.36-1.34-1.36
		c-0.67,0.01-37.73,0-37.73,0c0.33-1.29,2.1-5.7,2.93-7.11c0,0,30.46,0,31.25,0c0.95,0,1.39-0.81,1.39-1.42
		c0-0.66-0.59-1.36-1.34-1.36c-1.37,0-29.78,0-29.78,0c5.01-8.68,14.85-15.38,21.76-19.03c12.53,11.28,21.75,29.06,20.54,46.79
		c4.97-2.53,9.71-5.95,13.83-10.39C98,87.86,78.4,79.9,70.33,73.01c12.83-6.63,25.12-14.91,29.31-18.26
		C101.64,53.14,115.06,41.54,112.37,33.73z"/>
	<g>
		<path class="st1" d="M188.83,77.01c-3.97,2.2-9.53,3.67-15.03,3.67c-14.17,0-24.13-9.59-24.13-22.61
			c0-13.07,10.08-22.97,24.19-22.97c5.44,0,10.14,1.47,13.56,3.36v9.78c-3.73-2.57-8.55-4.4-13.38-4.4
			c-8.92,0-14.66,6.29-14.66,14.17c0,7.7,5.5,14.17,14.6,14.17c2.02,0,3.97-0.37,5.44-0.98v-6.66h-7.7v-8.07h17.11V77.01z"/>
		<path class="st1" d="M195.68,35.77h13.87c5.25,0,10.2,0.73,13.75,2.93c3.24,2.02,5.32,5.32,5.32,10.39
			c0,5.68-3.12,10.33-8.98,12.22l12.46,18.7h-11.18l-11.18-17.47h-4.34v17.47h-9.71V35.77z M210.28,55.26
			c2.63,0,4.64-0.31,6.11-1.04c1.65-0.86,2.5-2.32,2.5-4.46c0-2.08-0.73-3.42-2.5-4.34c-1.53-0.79-3.91-1.16-7.27-1.16h-3.73v11
			H210.28z"/>
		<path class="st1" d="M272.85,58.56c0,6.66-0.92,11.49-3.42,15.03c-3.12,4.46-8.8,7.09-15.89,7.09c-7.09,0-12.83-2.63-15.95-7.21
			c-2.38-3.54-3.3-8.37-3.3-14.66V35.77h9.71v22.67c0,4.71,0.43,7.58,1.71,9.65c1.34,2.14,3.91,3.85,8.07,3.85
			c3.85,0,6.35-1.41,7.82-3.67c1.34-2.08,1.89-5.13,1.89-9.78V35.77h9.35V58.56z"/>
		<path class="st1" d="M279.64,35.77h13.14c5.25,0,9.65,0.49,13.14,2.32c3.85,2.02,7.15,5.8,7.15,11.79c0,5.44-2.63,9.35-6.35,11.55
			c-3.42,2.02-7.82,2.75-14.3,2.75h-3.05v15.82h-9.71V35.77z M292.89,56.3c3.85,0,6.05-0.18,7.7-1.1c1.77-0.98,2.75-2.63,2.75-4.83
			c0-2.5-1.1-4.28-3.12-5.19c-1.77-0.79-4.16-0.92-7.58-0.92h-3.3V56.3H292.89z"/>
		<path class="st1" d="M315.87,57.89c0-12.89,9.96-22.79,23.09-22.79s23.09,9.9,23.09,22.79c0,12.89-9.96,22.79-23.09,22.79
			S315.87,70.78,315.87,57.89z M352.34,57.89c0-7.82-5.74-13.99-13.38-13.99c-7.64,0-13.38,6.17-13.38,13.99s5.74,13.99,13.38,13.99
			C346.6,71.88,352.34,65.71,352.34,57.89z"/>
		<path class="st0" d="M367.32,35.77h12.89c5.99,0,10.45,0.86,13.44,2.5c3.42,1.89,5.01,4.89,5.01,8.55c0,4.76-2.63,7.51-6.66,8.98
			v0.12c5.62,1.65,8.43,5.32,8.43,10.75s-2.81,9.47-8.43,11.61c-3.05,1.16-6.84,1.71-11.55,1.71h-13.14V35.77z M382.16,54.1
			c3.97,0,6.78-1.47,6.78-5.07c0-1.41-0.43-2.93-2.08-3.85c-1.59-0.92-4.28-1.1-6.84-1.1h-2.99V54.1H382.16z M380.64,71.7
			c3.48,0,5.87-0.24,7.33-0.85c2.08-0.86,2.75-2.5,2.75-4.46c0-3.85-2.69-5.62-7.88-5.62h-5.8V71.7H380.64z"/>
		<path class="st0" d="M405.51,35.77h9.71v44.23h-9.71V35.77z"/>
		<path class="st0" d="M420.48,57.89c0-12.89,9.96-22.79,23.09-22.79s23.09,9.9,23.09,22.79c0,12.89-9.96,22.79-23.09,22.79
			S420.48,70.78,420.48,57.89z M456.95,57.89c0-7.82-5.74-13.99-13.38-13.99c-7.64,0-13.38,6.17-13.38,13.99s5.74,13.99,13.38,13.99
			C451.21,71.88,456.95,65.71,456.95,57.89z"/>
		<path class="st0" d="M471.38,67.6c4.7,3.18,10.63,4.58,14.11,4.58c3.54,0,6.17-1.41,6.17-4.7c0-4.09-4.15-4.46-9.84-6.29
			c-6.11-2.02-11.61-5.01-11.61-12.71c0-8.25,6.23-13.38,15.52-13.38c4.34,0,9.65,1.1,13.5,3.18v9.59
			c-4.71-2.93-10.14-4.28-13.56-4.28c-3.3,0-5.68,1.22-5.68,4.15c0,3.91,4.09,4.22,9.41,5.99c6.66,2.2,12.04,5.32,12.04,13.14
			c0,8.61-6.54,13.81-16.07,13.81c-4.4,0-9.84-1.1-13.99-3.24V67.6z"/>
	</g>
	<g>
		<path class="st0" d="M152.16,89.01h2.35l-2,11.3h6.07l-0.37,2.09h-8.42L152.16,89.01z"/>
		<path class="st0" d="M163.42,98.38c0-1.24,0.44-2.68,1.52-3.79c0.92-0.96,2.2-1.5,3.66-1.5c2.55,0,4.46,1.63,4.46,4.22
			c0,1.24-0.44,2.68-1.52,3.79c-0.92,0.96-2.2,1.5-3.66,1.5C165.33,102.6,163.42,100.97,163.42,98.38z M169.93,99.81
			c0.61-0.67,0.89-1.55,0.89-2.35c0-1.37-0.85-2.4-2.35-2.4c-0.76,0-1.42,0.28-1.92,0.83c-0.61,0.67-0.89,1.55-0.89,2.35
			c0,1.37,0.85,2.4,2.35,2.4C168.77,100.64,169.43,100.36,169.93,99.81z"/>
		<path class="st0" d="M188.36,88.27h2.24l-2.5,14.13h-2.24L188.36,88.27z"/>
		<path class="st0" d="M196.83,88.27h2.24l-2.5,14.13h-2.24L196.83,88.27z"/>
		<path class="st0" d="M210.47,102.06c-0.79,0.37-1.92,0.54-2.83,0.54c-2.51,0-4.64-1.33-4.64-4.12c0-1.39,0.52-2.79,1.46-3.79
			c0.96-1.05,2.26-1.59,3.61-1.59c2.16,0,3.88,1.39,3.88,3.74c0,0.5-0.07,1.15-0.2,1.63h-6.53c0.07,1.52,1.15,2.29,2.66,2.29
			c1.04,0,2.18-0.37,2.96-0.74L210.47,102.06z M209.87,96.9c0-1.26-0.68-2-1.89-2c-1.24,0-2.13,0.78-2.53,2H209.87z"/>
		<path class="st0" d="M223.95,93.3h2.33l-5.38,9.1h-2.16l-2.09-9.1h2.31l0.7,3.16c0.24,1.07,0.44,2.05,0.65,3.07h0.04
			c0.55-1,1.15-2.02,1.74-3.03L223.95,93.3z"/>
		<path class="st0" d="M237.88,102.4h-2.22l0.13-0.72l-0.04-0.02c-0.61,0.54-1.42,0.94-2.44,0.94c-1.98,0-3.51-1.55-3.51-3.92
			c0-1.41,0.54-2.94,1.65-4.05c1.07-1.07,2.46-1.54,3.87-1.54c1.44,0,2.85,0.5,4.01,1.07L237.88,102.4z M236.88,95.39
			c-0.44-0.22-1.11-0.41-1.76-0.41c-1,0-1.7,0.43-2.2,1.02c-0.59,0.7-0.87,1.65-0.87,2.48c0,1.44,0.83,2.26,1.94,2.26
			c0.74,0,1.48-0.37,2.11-0.98L236.88,95.39z"/>
		<path class="st0" d="M245.73,93.3h2.22l-0.18,1l0.04,0.02c0.74-0.63,1.78-1.22,2.96-1.22c1.15,0,2.09,0.61,2.5,1.57
			c1.07-0.98,2.28-1.57,3.5-1.57c1.66,0,2.77,1.09,2.77,2.74c0,0.35-0.04,0.76-0.13,1.22l-0.94,5.34h-2.24l0.92-5.2
			c0.07-0.39,0.11-0.67,0.11-0.87c0-0.78-0.44-1.26-1.29-1.26c-0.83,0-1.68,0.46-2.5,1.18c-0.02,0.22-0.07,0.61-0.11,0.79
			l-0.94,5.34h-2.24l0.92-5.2c0.07-0.39,0.09-0.65,0.09-0.87c0-0.78-0.42-1.26-1.29-1.26c-0.83,0-1.67,0.46-2.44,1.15l-1.09,6.18
			h-2.24L245.73,93.3z"/>
		<path class="st0" d="M264.86,98.38c0-1.24,0.44-2.68,1.52-3.79c0.92-0.96,2.2-1.5,3.66-1.5c2.55,0,4.46,1.63,4.46,4.22
			c0,1.24-0.44,2.68-1.52,3.79c-0.92,0.96-2.2,1.5-3.66,1.5C266.76,102.6,264.86,100.97,264.86,98.38z M271.37,99.81
			c0.61-0.67,0.89-1.55,0.89-2.35c0-1.37-0.85-2.4-2.35-2.4c-0.76,0-1.42,0.28-1.92,0.83c-0.61,0.67-0.89,1.55-0.89,2.35
			c0,1.37,0.85,2.4,2.35,2.4C270.2,100.64,270.87,100.36,271.37,99.81z"/>
		<path class="st0" d="M279.64,99.4c1,0.79,2.39,1.31,3.64,1.31c0.46,0,0.89-0.07,1.15-0.31c0.17-0.15,0.3-0.39,0.3-0.67
			c0-0.79-1.07-0.79-2.26-1.13c-1.55-0.43-2.44-1.11-2.44-2.39c0-0.83,0.37-1.63,1.02-2.2c0.7-0.63,1.7-0.92,2.81-0.92
			s2.44,0.3,3.51,0.83L287,96.02c-0.91-0.59-2.24-1.02-3.29-1.02c-0.44,0-0.78,0.07-1.02,0.24c-0.24,0.17-0.39,0.43-0.39,0.7
			c0,0.78,1.09,0.78,2.22,1.07c1.59,0.41,2.46,1.13,2.46,2.46c0,0.74-0.28,1.5-0.89,2.11c-0.74,0.74-1.83,1.02-3.01,1.02
			c-1.26,0-2.59-0.31-3.83-1L279.64,99.4z"/>
		<path class="st0" d="M307.87,102.06c-0.79,0.37-1.92,0.54-2.83,0.54c-2.51,0-4.64-1.33-4.64-4.12c0-1.39,0.52-2.79,1.46-3.79
			c0.96-1.05,2.26-1.59,3.61-1.59c2.16,0,3.88,1.39,3.88,3.74c0,0.5-0.07,1.15-0.2,1.63h-6.53c0.07,1.52,1.15,2.29,2.66,2.29
			c1.04,0,2.18-0.37,2.96-0.74L307.87,102.06z M307.28,96.9c0-1.26-0.68-2-1.89-2c-1.24,0-2.13,0.78-2.53,2H307.28z"/>
		<path class="st0" d="M315.68,93.3h2.22l-0.18,1l0.04,0.02c0.92-0.72,1.94-1.22,3.05-1.22c1.66,0,2.77,1.09,2.77,2.81
			c0,0.31-0.04,0.68-0.13,1.18l-0.94,5.31h-2.24l0.91-5.12c0.07-0.39,0.09-0.67,0.09-0.89c0-0.78-0.37-1.31-1.28-1.31
			c-0.85,0-1.78,0.5-2.59,1.15l-1.09,6.18h-2.24L315.68,93.3z"/>
		<path class="st1" d="M344.59,101.74c-0.18-0.48-0.37-0.96-0.55-1.46c-0.18-0.5-0.39-0.98-0.61-1.46
			c-0.22-0.48-0.48-0.93-0.77-1.38c-0.29-0.44-0.64-0.85-1.04-1.24c-0.26-0.26-0.5-0.37-0.73-0.34s-0.46,0.12-0.7,0.29
			c-0.48,0.35-0.84,0.77-1.1,1.26s-0.48,1.03-0.66,1.59c-0.05,0.2-0.11,0.39-0.18,0.58s-0.12,0.37-0.18,0.55s-0.12,0.38-0.18,0.59
			c-0.06,0.21-0.13,0.45-0.21,0.73c-0.04,0.17-0.12,0.32-0.23,0.47c-0.12,0.15-0.3,0.22-0.54,0.22c-0.22-0.02-0.42-0.1-0.59-0.23
			c-0.17-0.14-0.26-0.33-0.26-0.56c-0.04-0.83-0.07-1.63-0.11-2.42c-0.04-0.79-0.07-1.61-0.11-2.48c-0.02-0.31-0.02-0.61-0.01-0.91
			c0.01-0.29,0.03-0.6,0.07-0.91c0.04-0.26,0.11-0.49,0.22-0.69c0.11-0.2,0.29-0.33,0.55-0.38c0.33-0.07,0.61,0,0.84,0.22
			c0.23,0.22,0.44,0.53,0.65,0.93c0.2-0.13,0.44-0.28,0.7-0.45s0.55-0.33,0.84-0.45c1.47-0.64,2.68-0.4,3.63,0.71
			c0.79,0.95,1.46,1.97,2.01,3.04s0.92,2.23,1.1,3.48c0.11,0.71-0.15,1.15-0.77,1.29c-0.29,0.07-0.52,0.06-0.67-0.03
			C344.83,102.22,344.69,102.03,344.59,101.74z"/>
		<path class="st1" d="M362.02,92.08c0.22,0.02,0.38,0.1,0.49,0.23c0.11,0.14,0.18,0.29,0.22,0.47c0.04,0.17,0.05,0.36,0.04,0.55
			c-0.01,0.19-0.01,0.35-0.01,0.48c-0.02,0.26-0.04,0.52-0.05,0.8c-0.02,0.27-0.04,0.55-0.06,0.83c-0.04,0.79-0.03,1.56,0.01,2.31
			s0.28,1.45,0.7,2.09c0.15,0.18,0.26,0.39,0.34,0.62c0.08,0.23,0.03,0.44-0.15,0.62c-0.29,0.26-0.58,0.38-0.87,0.37
			c-0.29-0.01-0.56-0.09-0.81-0.23c-0.2-0.11-0.39-0.24-0.56-0.38c-0.17-0.15-0.33-0.28-0.48-0.41c-0.4,0.28-0.83,0.56-1.29,0.84
			c-0.46,0.29-0.94,0.53-1.46,0.73c-0.75,0.31-1.41,0.45-1.98,0.41c-0.38-0.02-0.72-0.09-1.02-0.22s-0.55-0.3-0.77-0.52
			c-0.31-0.31-0.56-0.69-0.74-1.14c-0.18-0.45-0.32-0.92-0.41-1.42s-0.15-0.98-0.18-1.46c-0.03-0.48-0.04-0.9-0.04-1.26
			c0-0.5,0.02-1,0.07-1.51c0.05-0.51,0.12-1.03,0.23-1.54c0.04-0.15,0.11-0.28,0.22-0.4c0.11-0.12,0.24-0.18,0.38-0.18
			c0.29,0,0.5,0.15,0.61,0.44c0.11,0.31,0.21,0.64,0.3,0.98c0.09,0.34,0.15,0.67,0.17,1c0.04,1.03,0.09,2.03,0.17,3
			c0.04,0.29,0.08,0.56,0.14,0.81c0.05,0.25,0.17,0.46,0.36,0.65c0.18,0.2,0.38,0.35,0.59,0.45c0.21,0.1,0.47,0.14,0.78,0.12
			c0.99-0.04,1.76-0.37,2.31-0.99c0.55-0.62,0.88-1.45,0.99-2.47c0.07-0.5,0.15-0.99,0.22-1.49c0.07-0.49,0.15-0.98,0.22-1.46
			c0.02-0.2,0.06-0.4,0.12-0.61c0.06-0.2,0.15-0.38,0.26-0.55c0.11-0.17,0.24-0.3,0.4-0.4C361.64,92.13,361.82,92.08,362.02,92.08z"
			/>
		<path class="st1" d="M372.28,97.75c-0.07,0.71,0.02,1.35,0.27,1.9s0.62,0.98,1.1,1.29c0.4,0.26,0.85,0.46,1.33,0.6
			c0.49,0.15,0.98,0.23,1.47,0.25c0.38,0.02,0.77,0.02,1.16,0.01c0.38-0.01,0.81-0.03,1.26-0.07c0.55-0.02,0.85,0.1,0.89,0.34
			c0.05,0.25-0.19,0.46-0.7,0.65c-0.51,0.18-1.01,0.31-1.48,0.38c-0.48,0.07-0.96,0.12-1.46,0.14c-0.95,0.04-1.82-0.07-2.58-0.32
			c-0.77-0.25-1.43-0.61-1.98-1.1c-0.55-0.49-0.98-1.08-1.28-1.77c-0.3-0.7-0.45-1.48-0.45-2.34c0-0.79,0.13-1.54,0.4-2.27
			c0.27-0.72,0.64-1.36,1.11-1.91c0.48-0.55,1.05-0.98,1.72-1.31c0.67-0.32,1.41-0.48,2.21-0.48c0.37,0,0.73,0.05,1.1,0.15
			c0.37,0.1,0.7,0.25,1,0.44c0.3,0.19,0.55,0.43,0.74,0.7c0.19,0.27,0.31,0.59,0.34,0.93c0.05,0.84-0.22,1.57-0.83,2.17
			c-0.31,0.31-0.69,0.56-1.14,0.74c-0.45,0.18-0.92,0.33-1.42,0.44c-0.5,0.11-0.99,0.19-1.49,0.25S372.66,97.69,372.28,97.75z
			 M376.27,94.15c-0.09-0.22-0.25-0.36-0.48-0.43s-0.48-0.08-0.76-0.04c-0.28,0.04-0.55,0.12-0.84,0.23
			c-0.29,0.12-0.54,0.24-0.76,0.37c-0.15,0.09-0.28,0.21-0.41,0.34c-0.13,0.14-0.17,0.31-0.14,0.51c0.04,0.22,0.17,0.36,0.4,0.41
			c0.23,0.05,0.49,0.06,0.78,0.03c0.29-0.04,0.58-0.1,0.85-0.18c0.28-0.08,0.48-0.15,0.61-0.21c0.24-0.09,0.44-0.24,0.62-0.44
			C376.31,94.55,376.36,94.35,376.27,94.15z"/>
		<path class="st1" d="M387.4,100.88c0.39,0.11,0.78,0.2,1.18,0.26s0.76,0.08,1.07,0.05s0.57-0.1,0.77-0.22
			c0.2-0.12,0.3-0.3,0.3-0.54c0-0.2-0.08-0.4-0.23-0.61c-0.16-0.2-0.35-0.4-0.58-0.59s-0.47-0.38-0.73-0.55
			c-0.26-0.17-0.49-0.33-0.69-0.48c-1.19-0.86-1.79-1.88-1.79-3.05c0-0.48,0.11-0.95,0.33-1.43c0.13-0.31,0.33-0.61,0.61-0.89
			c0.27-0.28,0.59-0.54,0.95-0.76s0.74-0.4,1.14-0.54s0.8-0.21,1.18-0.21c0.4,0,0.76,0.09,1.09,0.26c0.32,0.17,0.61,0.39,0.87,0.65
			c0.06,0.05,0.13,0.14,0.22,0.25c0.09,0.11,0.17,0.23,0.25,0.36c0.07,0.13,0.11,0.27,0.12,0.41c0.01,0.15-0.03,0.28-0.12,0.41
			c-0.09,0.11-0.2,0.17-0.33,0.18c-0.13,0.01-0.27-0.01-0.41-0.07c-0.15-0.05-0.29-0.11-0.41-0.18s-0.24-0.11-0.33-0.15
			c-0.42-0.15-0.81-0.17-1.17-0.05c-0.36,0.11-0.69,0.31-1,0.6c-0.33,0.31-0.51,0.65-0.54,1c-0.03,0.36,0.11,0.67,0.43,0.95
			c0.37,0.31,0.71,0.6,1.04,0.87s0.66,0.53,0.99,0.78c0.46,0.35,0.88,0.76,1.26,1.24c0.38,0.48,0.58,0.99,0.58,1.54
			c0,0.61-0.28,1.16-0.83,1.65c-0.79,0.7-1.64,1.1-2.54,1.21s-1.84,0.06-2.79-0.14c-0.35-0.07-0.6-0.22-0.76-0.43
			c-0.16-0.21-0.24-0.54-0.26-0.98c0-0.37,0.09-0.62,0.27-0.77C386.73,100.79,387.02,100.77,387.4,100.88z"/>
		<path class="st1" d="M409.37,98.44c0.26,0.22,0.37,0.47,0.34,0.74c-0.03,0.28-0.09,0.53-0.18,0.77c-0.28,0.79-0.75,1.39-1.42,1.81
			c-0.67,0.42-1.44,0.63-2.32,0.63c-0.42,0-0.81-0.09-1.15-0.28c-0.35-0.18-0.66-0.42-0.94-0.7c-0.27-0.28-0.5-0.6-0.67-0.93
			s-0.3-0.66-0.37-0.98c-0.11-0.5-0.18-1-0.21-1.51c-0.03-0.51-0.05-1.07-0.07-1.68c-0.48-0.07-0.94-0.15-1.39-0.22
			c-0.45-0.07-0.91-0.17-1.39-0.27c-0.17-0.04-0.28-0.12-0.36-0.25c-0.07-0.13-0.11-0.27-0.11-0.41c0-0.2,0.05-0.36,0.15-0.47
			c0.1-0.11,0.25-0.21,0.45-0.3c0.46-0.17,0.92-0.32,1.39-0.47s0.97-0.3,1.5-0.47c0.04-0.61,0.08-1.17,0.12-1.69
			c0.04-0.52,0.11-1.06,0.21-1.61c0.04-0.31,0.17-0.55,0.38-0.71s0.49-0.2,0.8-0.11c0.18,0.04,0.36,0.13,0.54,0.28
			c0.17,0.15,0.28,0.34,0.32,0.58c0.05,0.42,0.1,0.88,0.15,1.38c0.04,0.5,0.09,0.96,0.12,1.4c0.95-0.09,1.88-0.16,2.79-0.21
			c0.91-0.05,1.83-0.08,2.76-0.1c0.26,0,0.48,0.03,0.67,0.08c0.19,0.05,0.32,0.16,0.37,0.3c0.07,0.22,0.01,0.4-0.18,0.55
			s-0.36,0.24-0.51,0.27c-0.77,0.24-1.49,0.47-2.15,0.69c-0.66,0.22-1.37,0.45-2.12,0.69c-0.37,0.11-0.73,0.23-1.1,0.37
			c-0.37,0.14-0.68,0.27-0.93,0.4c-0.11,0.33-0.15,0.83-0.11,1.49c0,0.26,0.01,0.51,0.03,0.77c0.02,0.26,0.06,0.5,0.14,0.73
			c0.07,0.23,0.19,0.44,0.34,0.62c0.16,0.18,0.38,0.33,0.67,0.44c0.57,0.2,1.05,0.17,1.44-0.11c0.39-0.28,0.72-0.66,0.98-1.16
			c0.09-0.2,0.23-0.35,0.43-0.44C409,98.26,409.19,98.29,409.37,98.44z"/>
		<path class="st1" d="M421.31,92.44c0.6-0.31,1.22-0.54,1.84-0.67s1.28-0.15,1.98-0.04c0.5,0.07,0.93,0.26,1.29,0.55
			c0.13,0.09,0.25,0.21,0.36,0.36c0.11,0.15,0.2,0.29,0.26,0.44c0.06,0.15,0.1,0.29,0.1,0.44c0,0.15-0.05,0.27-0.14,0.36
			c-0.09,0.09-0.22,0.14-0.4,0.14c-0.17,0-0.37-0.02-0.58-0.07s-0.43-0.09-0.65-0.14c-0.22-0.05-0.42-0.07-0.6-0.07
			c-1.43-0.04-2.56,0.33-3.4,1.09c-0.83,0.76-1.32,1.86-1.44,3.29c-0.06,0.61-0.09,1.17-0.11,1.69c-0.02,0.52-0.03,1.09-0.03,1.69
			c0,0.27-0.06,0.5-0.18,0.69c-0.12,0.18-0.32,0.27-0.59,0.27c-0.57,0-0.86-0.3-0.88-0.91c-0.04-0.44-0.07-0.88-0.1-1.31
			c-0.03-0.43-0.06-0.87-0.1-1.31c-0.05-0.57-0.11-1.15-0.15-1.73s-0.08-1.14-0.11-1.66c-0.03-0.52-0.05-0.99-0.07-1.4
			s-0.03-0.73-0.03-0.95c0.02-0.26,0.09-0.49,0.21-0.69c0.12-0.2,0.31-0.33,0.56-0.38c0.31-0.07,0.59-0.01,0.83,0.19
			c0.24,0.2,0.45,0.49,0.63,0.85c0.26-0.13,0.5-0.25,0.74-0.36C420.81,92.69,421.05,92.57,421.31,92.44z"/>
		<path class="st1" d="M439.73,93.29c0.64,0.22,1.18,0.57,1.61,1.04c0.43,0.48,0.73,1.01,0.91,1.59c0.17,0.59,0.21,1.2,0.11,1.83
			s-0.37,1.21-0.81,1.75c-0.7,0.84-1.5,1.5-2.41,1.97c-0.91,0.47-1.91,0.77-3.01,0.89c-0.68,0.07-1.26-0.04-1.73-0.33
			s-0.88-0.74-1.21-1.35c-0.5-0.9-0.76-1.8-0.78-2.7c-0.03-0.9,0.11-1.81,0.4-2.75c0.2-0.62,0.53-1.1,0.98-1.43s1.01-0.57,1.69-0.71
			c0.7-0.15,1.42-0.21,2.16-0.18S439.07,93.07,439.73,93.29z M437.67,94.72c-0.27,0-0.56,0.04-0.87,0.12
			c-0.3,0.08-0.59,0.19-0.85,0.33s-0.5,0.3-0.69,0.5s-0.33,0.4-0.4,0.62c-0.2,0.59-0.31,1.18-0.33,1.77
			c-0.02,0.6,0.19,1.16,0.63,1.69c0.15,0.17,0.37,0.29,0.67,0.37c0.3,0.08,0.56,0.1,0.78,0.04c0.88-0.2,1.69-0.53,2.42-0.99
			c0.51-0.31,0.89-0.69,1.14-1.14c0.25-0.45,0.33-0.88,0.23-1.31c-0.07-0.28-0.21-0.54-0.41-0.78c-0.2-0.25-0.43-0.46-0.69-0.63
			c-0.26-0.17-0.53-0.32-0.83-0.43C438.2,94.78,437.93,94.72,437.67,94.72z"/>
		<path class="st0" d="M457.85,89.36h3.65l2.9,13.04h-3.87l-0.49-2.67h-4.32l-1.4,2.67h-3.89L457.85,89.36z M457.19,96.99h2.36
			l-0.13-0.67c-0.14-0.79-0.32-1.87-0.45-2.77h-0.04c-0.41,0.86-0.95,1.93-1.42,2.83L457.19,96.99z"/>
		<path class="st0" d="M471.08,89.36h3.4c2.29,0,3.91,0.41,5.04,1.15c1.42,0.92,2.38,2.54,2.38,4.68c0,2.02-0.85,4.16-2.68,5.56
			c-1.35,1.04-3.19,1.64-5.53,1.64h-4.92L471.08,89.36z M474.02,99.26c1.4,0,2.39-0.38,3.08-1.06c0.76-0.74,1.1-1.78,1.1-2.79
			c0-0.94-0.31-1.82-1.17-2.36c-0.59-0.36-1.39-0.54-2.45-0.54h-0.34l-1.19,6.75H474.02z"/>
		<path class="st0" d="M485.84,102.4l2.3-13.04h3.46l2.21,4.02c0.67,1.21,1.33,2.43,1.96,3.64l0.04-0.02
			c0.18-1.17,0.41-2.59,0.65-3.93l0.65-3.71h3.57l-2.3,13.04h-3.46l-2.21-4.02c-0.67-1.21-1.33-2.43-1.96-3.64l-0.04,0.02
			c-0.18,1.17-0.41,2.59-0.65,3.93l-0.65,3.71H485.84z"/>
	</g>
</g>
</svg>
