<svg id="Capa_1" data-name="Capa 1" xmlns="http://www.w3.org/2000/svg" xmlns:xlink="http://www.w3.org/1999/xlink" viewBox="0 0 1400 466"><defs><style>.cls-1{fill:none;}.cls-2{clip-path:url(#clip-path);}.cls-3{opacity:0.72;}.cls-4{clip-path:url(#clip-path-2);}.cls-5{fill:#cbe6df;}.cls-6{fill:#c5e4e3;}.cls-7{fill:#9cd4d8;}.cls-8{fill:#e4f2ef;}.cls-9{fill:#a0d3d5;}.cls-10{fill:#e2f1ef;}.cls-11{fill:#e3f1f0;}.cls-12{fill:#9dd3d7;}.cls-13{fill:#e4f2f0;}.cls-14{fill:#9dd3d8;}.cls-15{fill:#e1f1f1;}.cls-16{fill:#c6e4e2;}.cls-17{fill:#a9d8d9;}.cls-18{fill:url(#Degradado_sin_nombre);}</style><clipPath id="clip-path"><rect class="cls-1" width="1400" height="466"/></clipPath><clipPath id="clip-path-2"><rect class="cls-1" y="-321" width="1400" height="786.9"/></clipPath><linearGradient id="Degradado_sin_nombre" x1="700" y1="475.15" x2="700" y2="368" gradientTransform="matrix(1, 0, 0, -1, 0, 468)" gradientUnits="userSpaceOnUse"><stop offset="0" stop-color="#030b37" stop-opacity="0.2"/><stop offset="1" stop-color="#00296b" stop-opacity="0.01"/></linearGradient></defs><title>Mesa de trabajo 1</title><g class="cls-2"><g class="cls-3"><g class="cls-4"><path class="cls-5" d="M.8,53.2V-72.6c7.4-.2,14.3,2.6,21.1,4.4,18.3,4.8,36.1,11,54.9,14.6,35.4,6.7,70.8,12,106.9,12.8,16.8.4,33.7.6,50.5,1.8s19.2-4.4,21.7-17c5.4-27.6,10-55.3,15-83,2-10.7-4.2-19.6-15.2-20.8a81.44,81.44,0,0,1-12-2.1c-31.2-8.4-61.9-18.4-94.1-23.2a732.73,732.73,0,0,0-93.5-8.1c-14.2-.3-28.5,1.3-42.6-1.5-4.2-.8-8.7-.8-12.8,1.6C.7-233.7.8-274.4.6-315c.1-4.9,1-6,5.9-6,36.6.3,73.1.1,109.7.1.8,8.1-3.2,15-5.6,22.2-3,9-1.5,14.3,6.9,17.5,7.8,3,15.7,5.7,23.5,8.5,23.6,8.4,47.1,16.9,70.7,25.3,12.8,4.5,25.9,8.2,38.2,13.7a61,61,0,0,0,20.7,5.4c5.5.4,9.1-2,11.8-7.1,5.8-11.2,8.4-23.5,12.4-35.3,2.5-7.4-.5-14.2-7.8-16.8-20.5-7.2-41.2-13.8-61.6-21.2-10.8-3.9-22.1-6.5-32.2-12.3H740.3c-.4,11.7-4.4,22.6-6.5,34-.3,1.6-.7,3.6-2.8,4-1.3.3-2.1-.6-2.3-1.9-1.1-8.8-7.5-12.3-14.6-16.4-7.5-4.3-13.3-5.5-19.3,1.5-.2.2-.6.2-.8.3-10.4,7.8-22.4,14.1-30.9,23.6-13.5,15.1-28.2,29.4-38.9,47-9.7,16-21.9,30.5-27.4,49-3.9,13.3,8.5,36.5,22.1,40.5,17.7,5.1,35.4,9.9,53.8,11.3,7.4.6,24.4-7.1,26.7-13.9,3.9-11.4,8.9-22.8,10.3-34.6,2.6-21.8,8.7-42.6,14.6-63.5,2.4-8.4,3.5-17.7,12.5-22.6,1.5-.8,3.6-2.8,4.2-.5,1.5,6,6.1,11.2,3.4,18.3-4.5,12.1-6.3,25-10,37.4-5.5,18.4-9.5,37.3-16.2,55.4-5.7,15.4.7,33.7,15.4,40.8,16.3,7.9,34,11.2,51.7,13.9,8.6,1.3,18.6,1.7,25.3-3.4,9.7-7.5,16-18.2,15.1-31.6-1.2-17.6.5-35-2.9-52.8-5.3-28.1-10.6-56.1-22.5-82.2-1.6-3.5-1.7-7.9-5.2-10.7-10-8-21.7-8.3-32.7-.6-1.6,1.1-3.1,3.6-5.2,2.2-2.3-1.5-1.8-4.4-.7-6.4,6.9-11.7,7.4-25.4,11.6-37.9h473.7c-.6,5.3-1.2,10.6-1.9,15.9-14-.4-27.7,2-41.4,4.3-2.2.4-6-.4-6.4,3.1-.3,2.4,2.5,3.7,4.5,4.9,6.3,3.7,8,7.5,1.6,13.3-5.9,5.2-6.1,10.7,1.9,14.8,7.8,3.9,7,9.4,1.6,14.2-7.2,6.4-5,10.1,2.2,14,6.7,3.7,8.3,8.3,1.6,14.2-5.7,4.9-6,10.1,1.4,14,7,3.6,8.8,7.8,2.5,14-1.6,1.6-4.6,4.1-3.1,6.6,1.7,2.9,5.2,1.2,8,.9,13.3-1.1,26.2-4.7,39.6-4.8-.8,6,2.6,10.4,6.9,13.1a48.35,48.35,0,0,0,16.1,6.1c30.7,6,61.2,4.7,91.6-3.3,10.3-2.7,19.5-8.9,30.5-8.9V-65.5c-6.4.3-11.4-4.1-17.4-5.2-6.7-2.3-11.1-9.8-19.4-8.8-4,.3-7.5-2-11.9-.5-14.5,5.2-25.7,14.6-34.8,26.5-2.3,3-6,6.4-4.9,12.1A38.37,38.37,0,0,0,1322-48a84.41,84.41,0,0,0,22.4,1.7c9.5-.4,18.7,3.4,26.5,6.8,5.8,2.6,14.1,7.6,17.5,15.3,1.4,3.2,3.7,4.2,6.9,4.1,0,2.9.6,5.6,3.6,7v8.7A7.86,7.86,0,0,0,1395,.1c-6.7,15.8-19.9,25.9-33.5,34.5-26.8,17-56.3,28.2-87,36.5-14.6,3.9-29.2,7.4-43.8,11.2-3.8,1-8.5,1.6-8.3,7.2.9,19.2-1.7,38.3-1.8,57.4,0,6.4,3.1,6.5,7.9,4.5,17.7-7.3,35.3-14.6,52.8-22.5,7.5-3.4,14-9.8,23.1-9.4,8.4,11.1,11.9,24.7,18.5,36.8,6.3,11.6,13.1,23.1,18.7,35.1,2.3,4.9,5.8,3.7,8.5-.5,3.6-5.6,6.8-11.7,11.2-16.5,5.5-5.9,8.4-13.7,14-19.2,6.6-6.5,8.6-14.3,3.2-22.1-4.7-6.9-10.5-13-14.9-20.1s-11.2-13.7-10.4-23.3c15.2-12.8,30.4-25.5,45.5-38.3V317.1c-7.7-4.2-10.3-9.8-5.2-17.7,3-4.6.1-7.1-3.3-9-6.4-3.7-9-8.6-6.3-15.9,1.9-4.9-1.2-7.7-5.4-7.7-8.8.1-10-5.1-9.6-12,.3-4.9-1.7-8.1-7-7.5-6.7.7-11.4-.8-12.4-8.4a3.67,3.67,0,0,0-3.5-3.4,3.93,3.93,0,0,0-2.8,1.5c-3.2,5,3.5,18.8,9.4,18.7,6.2-.1,9.5,2.3,9.3,8.5-.2,5.5,3,8,7.7,8.8,5.2.9,7.2,3,5.2,8.3-2,5.5-.1,9.9,5.3,12s5.4,5.6,2.8,9.5c-5.4,8.2,2.4,11.8,5.6,17,3,4.9,6.8.4,10.2.6,0,46-.1,92.1.2,138.1,0,6-1.2,7.2-7.2,7.2q-260.4-.3-520.9-.2c5.8-5,13.5-5,20.4-6.6,12.4-3,18.4-14.7,15.7-25.2-5.1-19.9-11.1-39.5-16.9-59.2-7.3-24.9-15.4-49.7-22.1-74.8-5.2-19.4-14-24.5-33.7-18.7-12.2,3.6-23.9,9.1-36.9,9.8-15.5-20.1-28-23.3-52.2-15.2-14,4.7-28.4,8.1-42.7,11.8-21.1,5.4-39.8,15.5-37.8,42.1-1.8,1-3.4,2.3-5.3,2.9-12.1,3.6-24.4,6.8-36.5,10.7-13,4.1-18.8,13.2-15.4,26,5.3,20.1,12.2,39.8,17.4,59.9,3.2,12.3,8.7,23.9,10.1,36.6H500.3c2.9-9.7,11.7-15.6,15.9-24.6,11.6-24.6,17.8-50.3,15.2-77.3-1.7-17.8-3.7-36.2-17.2-50.3,1.2-4.4,2-9.1,3.8-13.3,3-7.2.1-10.9-6.4-13.2-8.5-3-16.9-5.9-25.3-9.2-22.7-9-22.7-9-29.9,14.8-17.8,1.7-31.4,12.3-43.3,23.9-21,20.6-35.8,45.5-41,75-4.9,27.3,1.1,60.7,34.5,72,1,.3,1.8,1.4,2.7,2.1q-201,0-402,.2c-6,0-7.2-1.2-7.2-7.2.8-82.5.7-165.2.7-248,2.5.2,3,2.1,4,4,5,9.7,10.1,19.4,16.4,28.5,14.9,21.6,32.4,39.4,59.7,43.9,6.1,1,7.6,4.8,7.3,9.9a91.18,91.18,0,0,0,1.2,22.3c2.6,13.3,3,26.9,6,40.1,4,17.2,2.2,34.9,6.4,52.2,4.8,19.7,24.2,37.6,50.2,33.5,19.9-3.1,35.4-20.5,35.9-40.7.3-11.7-2.4-23.1-3.6-34.6-2.1-21-4.1-42.1-6.7-63.1-1.9-14.9,9-36.4,22.1-40,20.8-5.7,37.4-.7,48.1,17.2,5.4,9.1,3.7,19.2,5.5,28.7a393.13,393.13,0,0,1,6.3,64c-5.8,1.6-10.1,5.4-14.1,9.7-10.9,11.3-11.4,28.2-.9,39.2,11.9,12.4,31.5,14.5,42.9,4.5,9.8-8.6,13.1-21.5,8.6-34-4.9-13.6-12.9-18.9-29.6-19.5,0-4.4.6-8.9-.3-13.1-4-19.4-5.1-39-6.6-58.6-1.8-22.2-11.8-41.7-39.6-46.5-23-4-47.2,15.8-47.9,39-.5,16.6,1.5,33,3.7,49.4,1.9,14.3,3.5,28.7,5,43.1,1.8,18,.5,34.5-17.8,45.3-20,11.8-49.1,1.1-55.2-25.2-2.9-12.7-2.7-25.7-4.7-38.6-4-26.3-5.6-52.9-9.2-79.3-.5-3.3.4-5.5,4-6.6,25.6-8.4,38.8-28.8,47.9-52,17-43.5,25-88.7,23-135.5-.8-17.1-5.6-33.6-19.4-45.1a37.32,37.32,0,0,0-33.1-8c-3.3-2.9,1.2-11.3-7.3-10.5-11,1-22.1,1.1-32.7,3.9-6.6,1.7-8.5,8-6.4,17.6,1.5,6.9,4.9,11,12.7,9.7,7.4-1.2,14.9-2.9,22.3-3,9.1,0,13.1-3.3,11.6-12.5,21-2.2,38.3,10.9,42.8,32.7,3.6,17.7,3.5,35.1,2.2,52.5a261.53,261.53,0,0,1-8.3,49.4c-6-.5-9.9,1.1-13.1,7.3-2.8,5.6-5.5,11.6-9.1,16.5-18.8,26-50.7,35.8-81,20.9-9.2-4.5-18.7-10.2-24.8-20.3-6.3-10.5-8.8-10.3-17.2-5.1-2.4-2.2-3.6-5.7-6.9-7V63.9c3.5-.6,7-1.2,10.4-1.8,1.3,4.2-.6,10.9,7.5,10,10.1-1.1,20.1-2,30.2-3.1,7.1-.8,10.4-4.4,8.8-11.8a22.73,22.73,0,0,1-.9-6.8c.5-7.1-3.3-9.6-9.5-9.1-8.6.7-17.2,2.4-25.9,2.5C12,43.9,9.1,48.1,11.5,57,7.1,57.5,5,52.4.8,53.2ZM1129.9-261.5c.6-.6,1.2-1.1,1.8-1.7a4.28,4.28,0,0,0,1.8-3.6v-1.6c7.7-6.7,7.7-23,0-29.8.2-3.8-1-6.6-5.3-7.1-.5-1.1-1.1-2.3-1.6-3.4-8.6-9.7-27.7-12.5-36.8-5.2-2.6,0-5,.2-5.2,3.6-2.6-.1-5,.1-5.3,3.5v-.1a3.88,3.88,0,0,0-1.8,3.5c-7.9,5-11.1,18.4-7.9,31.7,1.1,4.6,2.6,8.8,7.8,10.2,4.6,12,15.8,12.2,25.9,13.8,3.8.6,8.3,1.4,10.8-3.4,3.4,0,7,.4,8.8-3.6a9.7,9.7,0,0,0-.1-1.7h.1c1.5-.1,2.8-.5,3.4-2.1.5-.5.9-1,1.4-1.5A7.82,7.82,0,0,0,1129.9-261.5ZM752.4,60c-.2,3.9-4,4.7-6,7-2.2,2.5-3,4.8-1.4,7.9,1.5,2.9,3.4,4.6,6.8,4.5,3.7-.1,6.2-1.9,7.2-5.3.6-2.2.3-4.6.4-6.9,5-5.6,6.2-1.4,7.7,2.8,1,2.7,2.1,5.7,5.8,5.5,2.5-.2,4-2.1,5.1-4.2,5.7-11.3,13.8-15,26.3-12.1,7.2,1.7,9.6-.6,8.1-8a49.12,49.12,0,0,1-.5-12.1c3.9-.3,5.1,2.7,7.1,5.2,2.7,3.5,6.4,4.9,10.5,2.1,3.9-2.8,4.1-7.1,2.5-10.8-2.3-5.2-7.5-2.7-11.5-3.2-1.7-5.2,3.2-6,5.6-8.5,4.2-4.3,3.1-7.9-2.2-8.8-5.5-.9-8.9-3.6-9.7-8.5-1-6.5,5.6-3,8.2-5.1,2-1.6,5.3-2.2,4.3-5.6-.9-3-3.9-2.4-6-1.7-8,2.7-10.6.2-8-7.8,1-2.9,0-5.1-2.3-6.9s-4.8-.7-6.4.8c-4.2,3.9-7.8,2.7-11.5-.5-.1-4,3.4-4.9,5.7-6.9,3.2-2.9,4-6.4,1.9-10.1-1.9-3.4-5-4.8-8.8-3.2s-6.1,4.4-5.2,8.7c.6,2.8,2.1,5.5-.6,8-4.7.4-6.7-2-7.4-6.5-.5-3.1-2.6-5.3-5.9-5.3-2.4,0-4.9,1-5.4,3.5-3,14-15.4,12.4-25,15.4-.5-4-2.2-5.8-6.3-3.8-3.3,1.6-5.1,3.9-2.7,7.5,3.1,4.6,2.7,9.1.3,13.8-4-.1-4.3-4.1-6.4-6.1-2.5-2.4-5.7-5.5-9.8-2.7-2.8,1.9-5.7,4.4-3.8,8.5s3.8,8.1,9.5,6.3c2.5-.8,5-1.6,7.1.9-1.5,2.3-1.1,6.1-4.7,6.8s-7.4.7-7.3,5.5c.1,4.6,3.3,6.3,7.4,7.2,3.2.7,3.5,3.8,3.8,6.2.4,3-2.1,3.5-4.5,4.2-2.7.8-7.6.6-5.3,5.3,1.8,3.7,5.1,6.4,10,3.4,1.9-1.2,3.7-5.3,6.2-2.2,1.8,2.2-1.1,4.7-2.5,6.8-1.5,2.4-2.2,5-.2,7.3s5.9,4.1,7.6,2.5C744.6,56.7,748.4,59.6,752.4,60Zm-360-209.5V-160c7.3-1.7,8.2-6.2,5.5-12.4-1.8-4.3-3.9-8.6-4.8-13.1-1-5.3-3.3-5.6-7.7-4.1-19.2,6.6-38.6,12.8-57.8,19.4-12.1,4.2-12.1,4.4-7.9,16.8.7,2.2,1.8,4.3,2.2,6.6,1.1,6.9,4.8,8.6,11,6,2.5,3.8,6.9,4.9,10.6,7.1-2.5,2.9-6.2,2.9-9.4,4-6.2,2.1-10.9,7-8.6,13,3.4,8.6,5.9,17.4,8.6,26.2,7.8,24.7,16.7,49.1,24.9,73.7,2.6,7.7,6.8,10.4,14.5,7.8,21.3-7.1,42.5-14.5,63.8-21.7,7.7-2.6,9.9-7.2,8.7-15.3-1.3-8.5-6.1-15.5-8.4-23.5-7.1-24.1-14.3-48.3-23.6-71.7C409.6-152.3,402.5-154.9,392.4-149.5ZM874.8,158.1c-11.4,8.4-21.1,18.6-29.9,29.5-5.3,6.5-4.4,18.2.8,24.3,6.8,8.1,15.9,11.4,23.7,6.9a90.36,90.36,0,0,0,33.5-32.9c13-8,23.1-19.2,31.9-31.3,5.8-8,3.4-16.3-4.6-24.2-6.2-6.2-17.9-8.6-24.8-2.9C894.4,136.8,883.6,146.5,874.8,158.1ZM602.2-50.1c2.7-5.4,5.6-10.4,10.2-14.7,8.6-8,8-10.2-.8-18.2-4.4-4-6.6-3.4-10.1,1.1-4.2,5.5-9.2,10.4-16.8,11-5.4-.9-10.6-6.1-16.4-1.3C555.7-61.7,544.4-49.6,533-38,520.5-25.2,507.7-12.7,495-.1c-11.1,11-17.7,16.4-4.6,29.4a6.1,6.1,0,0,1,.5,8.7c-9.1,9.6-18.5,18.8-27.9,28.1-1.8,1.7-5.1,3.2-2.7,6.2,2.6,3.1,4.6-.1,6.4-1.8,8.6-8.2,18.2-15.7,25.3-25.1,6.2-8.2,9.5-6.1,15.3-.5,8.3,8.1,9.8,7.9,18,.1,11.3-10.8,22.1-22.1,33.3-33.1,14.6-14.4,30.5-27.6,43.7-43.6C609.1-39.8,609.2-41.9,602.2-50.1ZM540.9-151.4c-5.9-7.7-12.3-15.1-18.7-22.2-11.6-12.9-16.5-29.5-26.6-43-4.4-5.9-7.5-15.1-12.6-17.9-7.3-4-10.5-10.2-15.5-15.4-4-4.2-7.8-8.9-12.6-12s-10-4.6-6.9-12c.7-1.6-.7-3.8-2.5-4.1-6.6-1.1-9.5-9.6-17.4-8.3-2.4.4-2.2-2.9-2.5-4.8h-.1c2.6-.3,3.9-1.5,2-4-4.8-6.1-10.7-11.9-17.7-14.2-2.6-.9-8.1,6.7-12.4,10.4a42.34,42.34,0,0,0-4,3.4c-6.2,6.7-5.6,15.4.2,22.6,6.2,7.6,15.4,11,22.4,17.8,14.2,13.6,25.5,29.7,39.6,43.3,8,7.8,15.1,16.5,25,22.2,11.3,6.4,24.4,10.5,31.1,23.2a8.47,8.47,0,0,0,3.9,3.3c7.7,3.9,13,10.8,20.1,15.5,2.2,10.7,11.8,15.1,18.5,21.9a3.46,3.46,0,0,0,4.8-.3c1.8-1.9,2-5,.4-6.4C553-138.7,549.9-148,540.9-151.4ZM1176.2-30.8a12.61,12.61,0,0,0,9.1-3.9c10.7-11.7,21.4-23.4,31.9-35.4,5.6-6.4,5-13.2-1.2-18.9-22.8-21-45.5-42.1-68.4-63-6.2-5.7-12.7-11-19.4-16.1-5.1-3.9-10.4-3.7-14.8,1.2-11,12-22,23.9-32.5,36.3-4.9,5.7-5,12,1.1,17.8,7.2,6.8,14.3,13.5,21.7,20.1,20.8,18.5,41.1,37.4,61.8,56.1C1168.5-33.8,1171.9-30.7,1176.2-30.8ZM333.2,86.6a112.1,112.1,0,0,1-5.3-10.4c-4.3-10.8-13.4-17.5-22.6-22.4-13-6.8-27.7-7.4-42.3-4.1-15.3,3.4-27.2,11.9-35,25a61.67,61.67,0,0,0-8.9,36.6c.6,9.2,3.7,17.6,5.9,26.2,1.1,4.4-1.6,8.6.9,12.6,4.8,7.7,10.8,14.6,13.7,23.7,2.3,7.3,6.9,13.9,11,20.4,10.2,16.1,21.2,31.7,30.8,48.2,3.6,6.1,6.9,6.9,12.3,4.1,18-9.3,37.9-14.4,55.2-25.5,14.8-9.5,30.9-17,44.4-28.6,16-13.7,31.3-26.8,35.3-50.3,3.3-19.5-3.9-33.7-13.9-47.5-9.1-12.5-23.4-18.3-38.4-19.9C360.9,73.1,346.5,77.6,333.2,86.6Zm204.4,76.7a15.41,15.41,0,0,1,.2,1.9c2.8,20.2,28.8,40.6,48.7,38.4a30,30,0,0,1,11.2.6,72.67,72.67,0,0,0,24.1,2.7c3.8-.2,7.4,1.3,11,2,9.5,1.8,15.9,10.4,25,11.5s15.7,7.1,23.7,10.1c3.8,1.4,6.6,6.8,10.9,2.1,3.5-3.8,8.9-.3,12.3-4.8,4-5.2,9.1-9.6,14.1-13.9,13.3-11.6,14-24.1,1.5-36.6a14.42,14.42,0,0,1-2.2-2.7,228.37,228.37,0,0,0-32.2-40.5c-12.5-12.5-12.3-12.8-.3-25.7,5.1-5.4,5.6-10.7.3-16-2.6-2.6-2.9-5-1.9-8.5,2.7-9.8-3.6-16.1-13.9-14.2-2.6.5-5.4,1.7-7.5-.3-8-7.5-15.1-5.2-21.7,1.9-3.5,3.7-6.4,4.9-10.8.7-3.2-3-8.1-4.1-12-.6-11.8,10.6-23.5,21.5-35.2,32.2-16.4,15-25.3,36-41.4,51.2A13.9,13.9,0,0,0,537.6,163.3ZM1047.9,31.5c1-17.7-7.2-33.4-10.1-50.2-3.3-19.4-8.9-38.4-12.5-57.7-4-21.7-9.4-25.6-30.8-20.1l-4.2,1.2c-18.8,4.9-38.2,6.8-56.9,12.4-10.3,3.1-15.9,10.2-14.1,18.8,1.8,8.2,3.9,16.4,5.8,24.6,5.4,23.4,12.1,46.5,15.7,70.1,4.9,32.1,23.3,50.9,55.3,52.4,4.8.2,7.4,1.5,8.4,6.6,1.6,8.5,4.1,16.9,5.9,25.4,3.2,15.4,25.3,26.8,38.2,23.4,19.6-5.2,31.4-24.6,26-40.7a59.59,59.59,0,0,1-2.1-10.2c-2-13,8.3-28.3,20.5-30.5,13.7-2.5,27.6,7.6,30.2,21.9,2,10.8,6.1,21.2,6.9,32.3.2,2.9,1.6,5.3,5,4.6,3.2-.7,3.7-3.4,3.2-6.2a40.53,40.53,0,0,0-1.6-7.7c-4.6-13-3.7-27.7-12.8-39.3-8.6-11-26.4-16.6-37.4-11.6-16,7.3-24.3,23-20.7,40.8a83.36,83.36,0,0,1,1.2,16.5c-.1,12.1-6.8,19.6-19.9,22.5-10.3,2.3-22.3-3.9-27.2-12.6-5.2-9.2-3.5-19.9-7.7-29.2-2.4-5.1-1.1-7.2,4-9.6C1036.5,69.9,1047,53.8,1047.9,31.5ZM1020.2,277c-17.8-1.7-31.2,8-39.6,22.4-11.3,19.3-9.5,39.4,4.8,57.6,18.5,23.4,42.1,41.3,64.3,60.7,3.5,3.1,5.7,2.2,6.7-2.1,2.4-10.7,5.1-21.4,7-32.2,2.6-14.5,4.6-29.1,6.7-43.7C1074.7,308.5,1054.5,275.4,1020.2,277Zm102.5,24.6c-.1,23.8,8.7,40.3,16,57,14.4,33.3,37.4,61.2,57.5,90.9,2.5,3.7,5.2,4.5,8.7,2.2,19.9-13.3,43.1-20.8,63-34.1,17.8-11.9,36.9-21.9,51.7-38.1,9.9-10.9,19.5-21.5,22.3-36.5,6-32.3-5.9-58-36.7-70.7-18.9-7.8-38.5-6.7-56.2,5.6-4.1,2.9-7.8,4.2-10.5-1.8-4.7-10.4-12.6-17.8-21.9-24.3-4.2-3-8.7-2.5-12.9-4.4-19.8-9.1-39.4-4.8-55.3,7.2C1132.1,266.8,1120.6,283.8,1122.7,301.6ZM1003.3-252.2c2.8-5.3-1.8-8.9-2.7-13.2-4.5-21.6-21.8-29.8-43.2-20.7-11.3,4.8-21.3,4.5-32.2-1.4-9.4-5-19.4-1.8-27,4.2-11.2,8.7-16.2,38.2-11,51.9,6,16,10.7,32.6,19.4,47.4,5.6,9.5,4.2,21.2,10.8,30.3,3.6,4.9,5.7,13.7,13.6,10.5,5.9-2.4,4.6-10.2,3.8-16.1-.7-5.2-2.4-10.4-2-15.4.4-5.8,1.3-13.1,8.2-14.6,12-2.6,17.8,3.2,17.9,15.7a37.3,37.3,0,0,1-2,12c-2.2,6.4-3.3,13.5,4,16.7s10.3-4.5,14.2-8.9c1-1.1.8-3.3,1.4-4.9,4-11.3,4.8-23.8,10.9-34.4C997.6-211.5,998.7-232.4,1003.3-252.2Zm-538,466.5c-4.8.4-4.8,4.5-5.9,7.6-1.5,4.1-.6,7.4,4,9.1,5.2,1.9,10.3,3.9,15.4,6.1,4.3,1.8,8,5.4,7.6,9.7-.8,9.3,5.2,11.1,11.8,13.2,5,1.6,9.9,3.5,14.7,5.4,4.1,1.6,6.8.6,8.2-3.6,2-6,3.8-12.2,6.1-18.1,1.6-4.1,1.1-6.4-3.3-8-16.3-5.8-32.6-11.9-48.9-17.9C471.9,216.7,468.6,215.5,465.3,214.3Zm642.3,21.3c-1.4-5.5.6-8.1,6.6-7.7,5.5.4,8.5-2.5,10-7.6,1.4-4.9,4.7-7.7,9.8-6,5.9,2,8.6-.9,11-5.4s5-6.3,10.3-2.8,16.9-3,18-9.4a4.1,4.1,0,0,0-2-4.4c-2.2-1.2-4.3-.6-5.3,1.4-4,8.1-9,5-14,1.4-3.9-2.8-7.4-2.6-9,2.2-3,8.8-9.5,9.5-16.8,7.5-5.5-1.5-6.6.5-6.8,5.3-.3,6.6-3.8,10.1-10.8,9.3-5.9-.6-8.3,2-8.5,8-.2,5.5-1.1,11.3-9,11.4-2,0-2.9,1.7-3,3.7,0,1.5,0,3,1.5,3.8C1095,249.1,1107.7,241.7,1107.6,235.6Zm79.4-18.9c-.5-.8-1-2.3-2.1-3.1-1.9-1.4-3.2.4-4.4,1.5-4.7,4.7-9.4,7-15.9,2.7-4-2.7-7.7-1.7-9.5,3.4-2.4,6.4-7.4,8.2-13.4,6.2-5.8-2-8.8.7-9.5,5.5-1,7.4-4.7,9.9-11.8,9.1-4.6-.5-8.4,1-7.9,6.6.7,7-1.1,11.8-8.9,13a3.64,3.64,0,0,0-3,4.6,3.49,3.49,0,0,0,3.6,3c8.4.5,15.7-4.9,16.5-13.2.5-5.1,2-7.8,7.3-7,6.8,1.1,9.8-2.3,10.3-8.5.4-4.5,2.5-7.2,6.6-4.6,7.3,4.5,12.1-.5,14.3-5.1,3.3-6.8,6.3-4.3,10.5-2.2C1175.9,231.6,1187.1,224,1187,216.7Zm189,114a20.44,20.44,0,0,0-2.5-3.3c-4.7-4.1-5.9-8.7-2.4-14.3,3.3-5.3-.3-8-4.5-10.1-5.7-2.9-7.4-7.2-4.7-12.9,3.2-6.7-.3-9-6-9.6-7-.8-10.4-4.1-9.2-11.5.8-5.2-1-8.5-7.1-7.8-5.9.6-11.1.3-11.2-7.9a4.09,4.09,0,0,0-4.8-4,3.19,3.19,0,0,0-2.9,2.8c-2.3,7.6,4.2,17.3,12.2,17.7,3.8.2,7.5.5,6.8,5.5-1,7.6,3.4,10.5,9.6,11.9,3.7.8,5.2,2.8,3.9,6.1-2.5,6.3-.7,10.6,5.2,13.6,4.1,2.1,4.7,5.1,2.9,9.4-2.8,6.8,1.7,16.4,8.4,18.9C1373.5,336.6,1374.7,333.9,1376,330.7Z"/><path class="cls-6" d="M488.5,465.7H430.8c-2-2.4-5-2.7-7.7-3.7-7-2.7-14.5-4.3-21-8.3-23.4-14.5-27.3-35.7-22.5-61.6,6.1-32.9,24.5-59.2,50.4-79.8,10.6-8.4,22.5-15.2,37.5-7.7A118.34,118.34,0,0,0,496.9,315c13.2,2.8,19.7,10.8,22.7,23,1.1,4.8,2.6,9.5,3.5,14.4,5.5,32.1.1,62.1-16.7,90.1C501.3,451.1,494,457.7,488.5,465.7ZM478,361.1c0-5.6,0-6.4-4.4-7.7-20.7-6.4-16.5-11.5-24.2,10.2a10.41,10.41,0,0,0-.6,1.6c-1,5.5-3.7,5.9-8.7,3.9-19.5-7.8-19.4-7.5-25.2,12.3-1.3,4.3-.3,5.9,3.8,7.8,5.4,2.6,13.3,1.5,16.2,7.2,3.1,5.9-2.8,11.3-4.3,17.1-1.4,5.5,0,8.2,5.1,9.8,1.9.6,3.9,1.3,5.8,1.9,11.6,4.1,11.6,4.1,16-7.3,5-13.1,5.1-13.1,18-7.8,10.6,4.4,10.7,4.4,15-6.2,1.8-4.5,5.2-9.4,3.9-13.9-1.4-4.8-7.9-3.6-12-5.5-6.9-3.1-12-7-6.8-15.7C477.1,366.3,477.5,362.9,478,361.1Z"/><path class="cls-7" d="M843.3,465.7H644c-5.2-18.6-10.5-37.3-15.7-55.9,5.6,4.1,11.3,8.1,16.7,12.5,6.7,5.4,14.2,8,22.6,5.6,16.7-4.7,33.8-7.8,49.9-14.6.9.6,2.6,1.2,2.7,1.9.5,11.6,7.1,10.8,15.4,8.2,12.8-4,12.8-3.7,17,9a7.32,7.32,0,0,1,.8,2.5c1,9.2,5.8,10,13.6,7.1,18.6-6.9,16.3-1.5,10.7-19.9-3-10-.1-11.6,7.9-13.8,13.2-3.6,13.1-4,12-17.6,8.1-2.2,16.2-4.2,24.2-6.6,8.9-2.6,18.1-4.7,26.4-8.5,15.6-7.2,18.5-22.5,21.3-37.4,2.8,2.1,3.3,5.4,4.2,8.4,4.3,14.5,8.5,29,12.8,43.4,4,13.6,8,27.3,12,40.9,3.3,11.5.6,16.9-10.7,20.5-6.6,2.1-13.5,3.6-20.1,5.9C859.6,460,850.7,460.7,843.3,465.7Z"/><path class="cls-7" d="M1399.2,51.5c-15.2,12.8-30.4,25.5-45.5,38.3q-24,13.65-47.9,27.5c-.6.3-.7,1.5-1,2.3-9.1-.4-15.6,6-23.1,9.4-17.4,7.9-35.1,15.2-52.8,22.5-4.8,2-7.9,1.9-7.9-4.5.1-19.2,2.7-38.2,1.8-57.4-.3-5.7,4.5-6.2,8.3-7.2,14.6-3.9,29.3-7.3,43.8-11.2,30.6-8.2,60.2-19.5,87-36.5,13.5-8.6,26.8-18.7,33.5-34.5a7.86,7.86,0,0,1,3.9-4.5C1399.2,14.2,1399.2,32.8,1399.2,51.5Z"/><path class="cls-8" d="M116,44.5a37.47,37.47,0,0,1,33.1,8c13.7,11.5,18.6,28,19.4,45.1,2.1,46.7-6,92-23,135.5-9.1,23.2-22.3,43.6-47.9,52-3.5,1.2-4.4,3.4-4,6.6,3.7,26.4,5.3,53,9.2,79.3,1.9,12.9,1.8,25.9,4.7,38.6,6.1,26.3,35.2,36.9,55.2,25.2,18.4-10.8,19.6-27.2,17.8-45.3-1.4-14.4-3-28.8-5-43.1-2.2-16.4-4.1-32.7-3.7-49.4.7-23.2,24.9-42.9,47.9-39,27.9,4.8,37.9,24.4,39.6,46.5,1.6,19.6,2.6,39.3,6.6,58.6.9,4.2.2,8.7.3,13.1-2.3,0-4.6.1-6.8.1a393.13,393.13,0,0,0-6.3-64c-1.8-9.6-.1-19.6-5.5-28.7-10.7-18-27.3-22.9-48.1-17.2-13,3.6-24,25.1-22.1,40,2.7,21,4.6,42,6.7,63.1,1.2,11.5,3.9,22.8,3.6,34.6-.5,20.2-16,37.5-35.9,40.7-26,4.1-45.4-13.8-50.2-33.5-4.2-17.3-2.4-35-6.4-52.2-3-13.1-3.4-26.8-6-40.1A86.25,86.25,0,0,1,88,296.7c.4-5.1-1.2-8.9-7.3-9.9C53.4,282.3,36,264.5,21,242.9c-6.3-9.1-11.4-18.7-16.4-28.5-1-1.9-1.5-3.8-4-4v-14c3.3,1.3,4.5,4.8,6.9,7,.7,9.4,6.4,16.8,11,24.3,11.9,19.2,24.6,37.9,46.4,47.7,18.1,8.1,34.3,5.5,49-7.5a89,89,0,0,0,27.3-43.2c3.9-13.5,9.9-26.4,11.5-40.6a261.53,261.53,0,0,0,8.3-49.4c1.3-17.3,1.4-34.8-2.2-52.5C154.3,60.4,137,47.3,116,49.5A41.62,41.62,0,0,0,116,44.5Z"/><path class="cls-8" d="M843.3,465.7c7.4-5,16.3-5.7,24.4-8.6,6.6-2.3,13.4-3.7,20.1-5.9,11.3-3.6,14.1-9.1,10.7-20.5-4-13.6-8-27.3-12-40.9-4.2-14.5-8.5-29-12.8-43.4-.9-3-1.4-6.3-4.2-8.4-.5-14.2-6.6-27-10.4-40.3-2.9-9.9-8-12.5-17.9-9.7-13.3,3.7-26.6,7.6-39.9,11.5Q715.05,324.7,628.7,350c-12.4,3.6-15.2,7-12.2,19.3,3.3,13.7,7.8,27.1,11.8,40.6,5.2,18.6,10.5,37.3,15.7,55.9h-8.7c-1.3-12.8-6.9-24.4-10.1-36.6-5.2-20.1-12.1-39.8-17.4-59.9-3.4-12.8,2.4-21.9,15.4-26,12.1-3.8,24.4-7,36.5-10.7,1.9-.6,3.5-1.9,5.3-2.9,7.5.2,14.2-2.9,21-5.5,19.1-5.3,38.6-9.6,57.2-16.4,10.6-3.9,22.3-3.8,32-10,7.9-1,15.7-2.3,22.5-6.8,12.9-.8,24.7-6.3,36.9-9.8,19.7-5.7,28.5-.7,33.7,18.7,6.7,25.1,14.7,49.9,22.1,74.8,5.8,19.7,11.9,39.3,16.9,59.2,2.7,10.5-3.3,22.2-15.7,25.2-6.8,1.7-14.5,1.6-20.4,6.6Z"/><path class="cls-8" d="M488.5,465.7c5.5-8.1,12.8-14.6,17.9-23.1,16.9-28.1,22.2-58.1,16.7-90.1-.8-4.8-2.3-9.6-3.5-14.4-2.9-12.2-9.5-20.2-22.7-23a127,127,0,0,1-29.4-10.4c-15-7.6-27-.8-37.5,7.7-25.8,20.6-44.3,46.9-50.4,79.8-4.8,25.8-.9,47,22.5,61.6,6.5,4,14,5.6,21,8.3,2.7,1.1,5.6,1.3,7.7,3.7h-21c-.9-.7-1.7-1.8-2.7-2.1-33.4-11.3-39.4-44.7-34.5-72,5.3-29.5,20-54.4,41-75,11.9-11.6,25.4-22.2,43.3-23.9,19,7.7,38,15.2,57.7,20.8,13.5,14.1,15.5,32.5,17.2,50.3,2.6,27-3.6,52.7-15.2,77.3-4.3,9-13,14.9-15.9,24.6C496.7,465.7,492.6,465.7,488.5,465.7Z"/><path class="cls-9" d="M1399.2,320.6c-3.4-.2-7.2,4.2-10.2-.6-3.2-5.2-10.9-8.8-5.6-17,2.6-4,2.6-7.4-2.8-9.5s-7.3-6.5-5.3-12c1.9-5.3-.1-7.5-5.2-8.3-4.7-.8-7.9-3.3-7.7-8.8.2-6.2-3-8.6-9.3-8.5-5.9.1-12.6-13.7-9.4-18.7a3.75,3.75,0,0,1,2.8-1.5c2,0,3.2,1.6,3.5,3.4,1,7.6,5.7,9.1,12.4,8.4,5.3-.6,7.3,2.6,7,7.5-.4,6.9.8,12,9.6,12,4.2,0,7.3,2.8,5.4,7.7-2.8,7.3-.1,12.2,6.3,15.9,3.4,2,6.3,4.4,3.3,9-5.1,7.8-2.5,13.5,5.2,17.7Z"/><path class="cls-10" d="M.8,53.2c4.1-.8,6.3,4.3,10.4,3.6v5.1c-3.5.6-7,1.2-10.4,1.8Z"/><path class="cls-11" d="M333.2,86.6c13.4-9.1,27.7-13.5,43-11.9,15,1.6,29.3,7.4,38.4,19.9,10,13.8,17.3,28,13.9,47.5-4,23.6-19.3,36.6-35.3,50.3-13.5,11.6-29.6,19-44.4,28.6-17.3,11.1-37.1,16.3-55.2,25.5-5.4,2.8-8.7,2.1-12.3-4.1-9.6-16.4-20.6-32-30.8-48.2-4.1-6.5-8.7-13.2-11-20.4-2.9-9.1-8.9-15.9-13.7-23.7-2.5-4,.2-8.3-.9-12.6-2.2-8.6-5.2-17-5.9-26.2a61.67,61.67,0,0,1,8.9-36.6c7.8-13.1,19.7-21.5,35-25,14.6-3.3,29.3-2.8,42.3,4.1,9.3,4.9,18.4,11.6,22.6,22.4A112.23,112.23,0,0,0,333.2,86.6Zm32.2,86c7.5-4.3,13.8.1,19.5,2.3,11.6,4.5,18.9.5,26.2-8.3,16-19.6,14.8-50.8-3.4-69.4-19-19.4-49.6-21.5-69.7-4.6-7.8,6.5-7.8,6.5-11.2-3.3-10.4-29.6-45.1-43.2-73.1-29.1-19.2,9.7-33.5,33.9-26.5,61.4,1.7,6.7,3,12.5,11.1,14.7,22.7,6.2,45.2,13,67.8,19.6,4.5,1.3,7.7.3,10.2-4.1,5.3-9.4,10.6-18.7,16.5-27.7,3.7-5.7,5.6-12.6,12.2-18.4-3.1,26-6,50.5-8.9,74.9.7.2,1.4.4,2.2.7,9.4-16.4,18.9-32.8,29.1-50.5C369.3,145.7,365.7,158.7,365.4,172.6ZM234.2,141.5c.2,5.1,1.8,9,3.5,13,11.9,28,29.5,52.7,45,78.7,4.4,7.3,9,7.6,15.7,4.3,17.7-8.8,35.9-16.7,53.3-26,14.2-7.6,28.5-15.3,40.7-27.5-7-2.6-13.2-6.1-19.7-5.4-7.2.8-7.9,10.7-15.1,13.9-.3-10.9,3.4-21,.4-32.4-10.7,18.3-20.6,35.3-30.6,52.3-.6-.3-1.2-.5-1.8-.8q4.65-37.2,9.3-74.6a8.31,8.31,0,0,0-2.1-.1c-3.4,5.1-6.8,10.1-10,15.3-8.1,13.3-8,13.1-23.3,8.5C278.1,154.2,256.3,148,234.2,141.5Z"/><path class="cls-11" d="M537.6,163.3a12.16,12.16,0,0,1,4-8.3c16.2-15.2,25-36.3,41.4-51.2,11.8-10.7,23.4-21.6,35.2-32.2,3.9-3.5,8.8-2.4,12,.6,4.4,4.2,7.3,3.1,10.8-.7,6.6-7.1,13.6-9.4,21.7-1.9,2.1,2,4.9.8,7.5.3,10.2-1.9,16.6,4.4,13.9,14.2-1,3.5-.7,5.9,1.9,8.5,5.3,5.3,4.8,10.6-.3,16-12,12.9-12.2,13.2.3,25.7a228.37,228.37,0,0,1,32.2,40.5,18.57,18.57,0,0,0,2.2,2.7c12.4,12.5,11.8,25-1.5,36.6-5,4.3-10.1,8.7-14.1,13.9-3.4,4.5-8.8,1-12.3,4.8-4.3,4.7-7.1-.7-10.9-2.1-8-3-14.4-9-23.7-10.1-9-1.1-15.5-9.8-25-11.5-3.6-.7-7.2-2.2-11-2a75.39,75.39,0,0,1-24.1-2.7,30,30,0,0,0-11.2-.6c-19.8,2.1-45.9-18.3-48.7-38.4C537.8,164.7,537.7,164.1,537.6,163.3Zm99.9,22.2c-3.5.3-4.9.5-6.4.6-10.1.6-20.4-1.1-30.4,1.3-3.1.7-5.5,2.2-5.4,5.8s2.3,6.5,5.8,6.6c20.9.5,40.7,5,58.9,15.6a4.67,4.67,0,0,0,1.7.3,34.1,34.1,0,0,1,19.1,8c6.7,5.9,12.9,4.1,19,0,8.9-6.1,16.6-13.5,22.2-23,3.6-6.1,4.1-11.3-1.7-16.2-6.5-5.5-11.4-12.4-15.7-19.7-14.4-24.1-37.6-40.2-56.1-60.6-2.8-3.1-6.3-2.6-9.2.4s-1.8,5.8.8,8.3c4.7,4.8,9.5,9.4,14.1,14.3,1.5,1.5,4.8,3.4,2.8,5.5-2.5,2.7-4.6-.7-6.3-2.3-9.1-9-18.1-18.1-27.2-27.1-3.5-3.5-7.5-8.1-12.5-3-4.7,4.8.1,8.4,3.3,11.7,9.4,9.5,18.9,18.9,28.4,28.4,1.6,1.6,4.4,3.6,2.5,5.7-2.8,3.1-4.5-.9-6-2.4-12.4-12.2-24.7-24.6-37-37-3.5-3.5-7.8-6.9-12-2.6-4.7,4.7-.7,8.7,3.1,12.4,12.3,11.9,24.4,24,36.5,36.2,1.5,1.6,5.7,3.4,2.7,6.1-2.5,2.3-4.3-1.6-6-3.3-10.4-10.1-20.7-20.3-31.2-30.4-2.6-2.5-5.6-4.9-9.1-1.6-3.6,3.5-3.1,7.1.5,10.6,6.6,6.5,13.1,13.2,19.5,19.9C615.7,164.1,627.4,172.8,637.5,185.5Zm-52.7-71.3a38.43,38.43,0,0,0-14.3,13c-7,10.6-13.1,22-22.8,30.4-5.8,5.1-5.4,9.2-2.3,15,5.9,10.9,15.6,17.7,25.4,24.4,4.5,3.1,16-.7,18.4-6,2.7-5.9,6.5-8.7,13.3-9,5.2-.2,10.2-1.9,15.4,0,1.6.6,3.6.4,4.4-1.6.8-1.8.1-3.1-1.3-4.5-10.7-10.7-20.6-22.4-32.1-32.2C578.6,134.8,574,126.5,584.8,114.2Zm46.6-12.1c5.6-.1,26.2-19.2,26.6-24.6.2-2.4-.1-4.7-2.5-6a5.4,5.4,0,0,0-6.5.7c-7.6,7-15.5,13.8-22.1,21.9a4.26,4.26,0,0,0-.5,5.5C627.5,101.6,629.2,102.2,631.4,102.1Zm42-27.6c-.6.1-1.4-.1-1.7.2-8,6.2-15.4,13.1-21.3,21.3-2.4,3.3,3.6,5.1,5.5,7.7,1.7,2.4,3.4-.4,4.7-1.7,5.5-5.5,10.9-11.1,16.4-16.5a7,7,0,0,0,1.7-7.2C678,75.7,675.6,75,673.4,74.5Zm-43.5,8.1c.3-5.7-5.3-9-9.4-5.7-6.8,5.4-12.6,12-18.7,18.2a2.47,2.47,0,0,0,.3,3.8c1.4,1.2,2.8.9,3.6-.6,2.6-4.4,7.1-4.1,11.2-5.3A25.14,25.14,0,0,0,629.9,82.6Zm47,12.6c-5.2.6-7.7,6.1-11.7,9.6-1.6,1.4-4,3-2.5,5.8a7.38,7.38,0,0,0,6.3,3.9c4.6.2,15.1-9.2,15.1-13.7C684.1,96.6,681.6,95.2,676.9,95.2Z"/><path class="cls-8" d="M1047.9,31.5c-.9,22.3-11.4,38.4-31.7,47.8-5.2,2.4-6.4,4.5-4,9.6,4.2,9.2,2.6,19.9,7.7,29.2,4.9,8.7,16.9,14.9,27.2,12.6,13.1-2.9,19.8-10.4,19.9-22.5a83.91,83.91,0,0,0-1.2-16.5c-3.6-17.8,4.7-33.5,20.7-40.8,11-5,28.8.6,37.4,11.6,9.1,11.6,8.2,26.3,12.8,39.3.9,2.4,1.1,5.1,1.6,7.7.5,2.8.1,5.5-3.2,6.2s-4.8-1.6-5-4.6c-.8-11.1-4.9-21.5-6.9-32.3-2.6-14.3-16.5-24.4-30.2-21.9-12.2,2.2-22.5,17.5-20.5,30.5a57.68,57.68,0,0,0,2.1,10.2c5.4,16.2-6.4,35.5-26,40.7-12.8,3.4-35-8-38.2-23.4-1.8-8.5-4.3-16.9-5.9-25.4-1-5.2-3.6-6.4-8.4-6.6-32-1.4-50.4-20.2-55.3-52.4-3.6-23.6-10.3-46.8-15.7-70.1-1.9-8.2-4-16.3-5.8-24.6-1.9-8.6,3.8-15.8,14.1-18.8,18.7-5.6,38.1-7.5,56.9-12.4l4.2-1.2c21.4-5.5,26.8-1.5,30.8,20.1,3.6,19.3,9.3,38.3,12.5,57.7C1040.7-1.9,1048.9,13.8,1047.9,31.5ZM937.8-16.7c4.6,20.6,8.4,41.5,14.1,61.8,6.5,22.9,31.2,35.8,54.8,30.2,21.4-5.1,37.6-27.8,33.8-50.2-3.5-20.5-9-40.7-13.6-61.1-2.4-15.4-7.6-30.1-9.5-45.7-.8-6.8-5.4-11.7-13.6-9.8-22.2,5.1-44.4,10.1-66.5,15.4-10.1,2.4-12,6.6-9.5,16.6C931.4-45.2,934.5-30.9,937.8-16.7Z"/><path class="cls-6" d="M152.9,184.3c-1.5,14.2-7.6,27.1-11.5,40.6a89.51,89.51,0,0,1-27.3,43.2c-14.7,13-31,15.6-49,7.5-21.8-9.8-34.5-28.5-46.4-47.7-4.6-7.5-10.3-14.9-11-24.3,8.4-5.2,11-5.4,17.2,5.1C31,218.8,40.5,224.5,49.7,229c30.3,14.9,62.2,5.1,81-20.9,3.6-4.9,6.2-11,9.1-16.5C143,185.4,146.9,183.8,152.9,184.3Z"/><path class="cls-12" d="M1020.2,277c34.3-1.6,54.4,31.5,49.9,62.7-2.1,14.6-4.1,29.2-6.7,43.7-1.9,10.8-4.6,21.4-7,32.2-1,4.4-3.2,5.2-6.7,2.1-22.1-19.5-45.8-37.4-64.3-60.7-14.4-18.1-16.1-38.2-4.8-57.6C989,285,1002.5,275.2,1020.2,277Zm1.6,84c20.4,2,36.7-17.4,36.5-35.9-.3-19.2-17-35.8-36.5-35.8-19.2,0-36.6,16.6-36.6,34.9C985.2,345.7,1000.4,361,1021.8,361Z"/><path class="cls-13" d="M1122.7,301.6c-2.1-17.8,9.4-34.8,25.5-46.9,15.9-11.9,35.5-16.2,55.3-7.2,4.2,1.9,8.7,1.4,12.9,4.4,9.3,6.5,17.2,13.9,21.9,24.3,2.7,6,6.4,4.6,10.5,1.8,17.7-12.3,37.3-13.4,56.2-5.6,30.8,12.7,42.6,38.4,36.7,70.7-2.8,15-12.3,25.6-22.3,36.5-14.8,16.2-33.9,26.2-51.7,38.1-19.9,13.3-43.1,20.7-63,34.1-3.5,2.4-6.2,1.5-8.7-2.2-20.1-29.8-43.1-57.7-57.5-90.9C1131.4,341.9,1122.6,325.4,1122.7,301.6Zm213.6,27.1c-.1-20.2-12.9-40.6-30.5-48.3-21.9-9.6-42.1-6.9-59.9,9-5.5,4.9-7.5,5.6-10.4-2.1-8.4-22.1-24.5-35.3-48.4-36.5-34.9-1.8-64.7,29.9-54.7,69,11.7,46,39.8,82.9,66.8,120.5,2.3,3.3,4.7,2.5,7.5,1.1,7-3.5,14.1-7,21.1-10.5,31.3-15.5,61.7-32.5,86.9-57.3C1327.3,361.3,1336.3,347.2,1336.3,328.7Z"/><path class="cls-6" d="M1304.6,119.5c.3-.8.4-2,1-2.3,16-9.2,32-18.3,47.9-27.5-.8,9.6,6,16.1,10.4,23.3s10.2,13.2,14.9,20.1c5.4,7.8,3.4,15.6-3.2,22.1-5.6,5.5-8.6,13.2-14,19.2-4.5,4.8-7.7,10.9-11.2,16.5-2.7,4.3-6.2,5.4-8.5.5-5.6-12.1-12.5-23.5-18.7-35.1C1316.5,144.2,1313.1,130.6,1304.6,119.5Z"/><path class="cls-10" d="M602.2-50.1c7,8.2,6.9,10.2.1,18.5-13.2,15.9-29,29.1-43.7,43.6-11.1,11-22,22.3-33.3,33.1-8.2,7.9-9.6,8-18-.1-5.9-5.7-9.1-7.7-15.3.5-7.1,9.4-16.7,16.9-25.3,25.1-1.7,1.7-3.7,4.9-6.4,1.8-2.5-3,.9-4.5,2.7-6.2,9.3-9.3,18.8-18.5,27.9-28.1,2.3-2.4,2.2-6.1-.5-8.7C477.3,16.4,484,11.1,495,0c12.6-12.6,25.4-25.2,38-37.9,11.4-11.6,22.7-23.7,35.3-34.2,5.8-4.8,11,.3,16.4,1.3C588-61.8,597-57.5,602.2-50.1Zm-57.5,37c6.6.6,9.4,6.2,13.5,10.1,1,1,1.6,2.8,3.3,2.3,2-.6,2.5-2.6,2-4.3-1.1-4.5-1.5-7.9,5-5.2,1.6.7,3.7.7,4.8-.9,1.4-2.1-.1-3.9-1.5-5.4-2.6-2.7-5.3-5.4-7.9-8.1-1.2-1.3-2.5-3-1-4.6,1.7-1.9,3.1,0,4.3,1.1,3.1,2.7,6,5.5,9.1,8.1,1.4,1.2,2.7,3.6,5.1,1.6,1.8-1.5.8-3-.1-4.6-3.3-5.9-.8-6.2,4-4.1,2.1,1,4.2.7,5.4-1.3,1.3-2.4-1-3.6-2.3-5-2.8-3-5.8-5.8-8.6-8.7-1.3-1.4-2-3-.4-4.6s3.2-.9,4.6.4c2.5,2.4,5,4.9,7.5,7.3s5,3.9,8.3,1.1c3.7-3.2,1.3-5.9-.9-8.1-6.5-6.6-13.5-12.8-19.8-19.5-3.9-4.2-6.5-3.1-9.9.5-6.4,6.8-13.4,13-19.7,19.9-5.8,6.4-13.7,11-17.3,19.3a4.26,4.26,0,0,0-1.7.4c-14.3,12-26.6,26-39.9,39-3,3-1.6,5.7.9,8.3,6,6,11.9,11.9,17.9,18,3.4,3.5,7.1,7,11.8,2.3,4.9-5-1.7-6.6-3.4-9.7-1.8-3.3-8.7-5.5-5.2-9.3,2.6-2.8,5.4,3.4,8.3,5.4,2.7,1.8,4.3,6.6,8.4,4.6,5.6-2.7-1.9-5.7-.3-8.8.3-.5.6-1,1-1.7,3-.5,5.5,6.3,8.6,1.3,2.3-3.7-2.1-5.4-4-7.7-1.3-1.6-2.8-2.9-4.2-4.4s-4.4-3.3-2.2-5.7c2.6-2.9,3.9.8,5.4,2,2.4,2.1,4.5,4.5,6.9,6.7,1.9,1.8,3.6,4.1,6.6,1.5,2.5-2.2,1.6-3.9-.3-5.8-1-1-2.1-2.3-.9-3.8s2.7-.9,3.9.1c2.3,1.9,4.5,2.9,6.7.1,2.9-3.8-1.4-4.9-2.8-7C550.4-4.2,543.8-6.2,544.7-13.1Z"/><path class="cls-14" d="M797.8,290.9c-6.8,4.6-14.6,5.8-22.5,6.8-3.4-9-11.2-7.9-17.7-6.3-19.9,5-39.7,10.8-59.4,16.8-7.2,2.2-13,6.8-12.2,15.8-6.8,2.6-13.4,5.7-21,5.5-2-26.6,16.7-36.6,37.8-42.1,14.3-3.7,28.7-7.1,42.7-11.8C769.8,267.6,782.3,270.9,797.8,290.9Z"/><path class="cls-14" d="M874.8,158.1c8.8-11.5,19.6-21.3,30.6-30.5,6.8-5.7,18.5-3.3,24.8,2.9,8,7.9,10.4,16.2,4.6,24.2C926,166.8,915.9,178,902.9,186c-6.2-6.1-11-13.7-19.3-17.4l-1.7-1.7C881.3,162.4,877.9,160.4,874.8,158.1Z"/><path class="cls-12" d="M259.6,376.5c2.3,0,4.6-.1,6.8-.1,16.7.6,24.6,5.8,29.6,19.5a30.48,30.48,0,0,1-8.6,34c-11.5,10-31,8-42.9-4.5-10.5-10.9-10-27.9.9-39.2C249.5,382,253.8,378.1,259.6,376.5Zm-7,29.7c-.3,7.6,6.6,15.1,14.3,15.5,7.5.4,15-6.8,15.4-14.7s-6.2-15.4-14-16S252.9,397.6,252.6,406.2Z"/><path class="cls-15" d="M733.1.8c2.4-4.6,2.8-9.2-.3-13.8-2.4-3.5-.6-5.9,2.7-7.5,4.1-2.1,5.9-.2,6.3,3.8-3.5,0-7.9-1-3.7,5,2.2,3.2,3.2,7.2.6,10.6-3.1,4.1-3.6,9.1-5.4,13.7-2.1,5-8.3,4-12.5,8.4,9.6.7,13.1,6,15.7,13.7,2.4,7.2,5.1,13.8-1.1,22.4,15.3-7.2,31.1-.5,38.7,14.6-.6-10.5,6.8-12.3,13.7-15.5,7.3-3.4,14-6.8,22,.3-5.6-8-4.4-14.1-.7-21.7,3.4-7,5.9-13.4,15.2-15.3-9.8-1.6-11.9-8.7-15.1-15.3s-5.9-13-.9-20.1c-16.6,4.6-28.2-.8-36.4-15.1-3,8.6-16.8,17.9-24.9,17.7-2.4-.1-4.8-.3-5.1-3.5,9.7-2.9,22.1-1.3,25-15.4.5-2.5,3.1-3.6,5.4-3.5a5.81,5.81,0,0,1,5.9,5.3c.7,4.5,2.7,6.9,7.4,6.5,1.4,3,4,3.6,7,3.5,3.7,3.2,7.3,4.4,11.5.5,1.6-1.5,4-2.6,6.4-.8s3.3,3.9,2.3,6.9c-2.6,8,0,10.5,8,7.8,2-.7,5.1-1.3,6,1.7,1,3.3-2.3,4-4.3,5.6-2.6,2.1-9.1-1.4-8.2,5.1.7,4.9,4.2,7.6,9.7,8.5,5.3.9,6.4,4.5,2.2,8.8-2.4,2.4-7.3,3.3-5.6,8.5-3.8,1.1-9,.4-8.6,6.8-.2,4-.4,8,.5,12.1,1.5,7.4-.9,9.7-8.1,8-12.5-2.9-20.6.9-26.3,12.1-1.1,2.2-2.6,4-5.1,4.2-3.7.3-4.9-2.8-5.8-5.5-1.5-4.3-2.7-8.4-7.7-2.8-1-3.7-.8-8.5-7-7.2-4-.4-7.8-3.3-12.1.7-1.7,1.6-5.7-.2-7.6-2.5s-1.3-4.8.2-7.3c1.3-2.1,4.3-4.6,2.5-6.8-2.6-3.1-4.4,1-6.2,2.2-4.9,3-8.3.3-10-3.4-2.3-4.8,2.6-4.6,5.3-5.3,2.4-.7,4.9-1.3,4.5-4.2-.3-2.4-.6-5.5-3.8-6.2-4.1-.9-7.3-2.6-7.4-7.2-.1-4.9,3.8-4.9,7.3-5.5s3.2-4.5,4.7-6.8C730.9,5.4,732,3.1,733.1.8Z"/><path class="cls-14" d="M465.3,214.3c3.3,1.2,6.5,2.4,9.8,3.6,16.3,6,32.5,12.1,48.9,17.9,4.4,1.6,4.9,3.9,3.3,8-2.3,5.9-4.1,12.1-6.1,18.1-1.4,4.2-4.1,5.2-8.2,3.6-4.9-1.9-9.7-3.8-14.7-5.4-6.6-2.1-12.6-4-11.8-13.2.4-4.4-3.4-7.9-7.6-9.7-5.1-2.2-10.2-4.2-15.4-6.1-4.6-1.7-5.4-5-4-9.1C460.5,218.9,460.5,214.7,465.3,214.3Z"/><path class="cls-12" d="M514.7,313.5c-19.7-5.6-38.8-13.1-57.7-20.8,7.1-23.9,7.2-23.8,29.9-14.8,8.3,3.3,16.8,6.2,25.3,9.2,6.6,2.3,9.4,6,6.4,13.2C516.7,304.4,515.9,309.1,514.7,313.5Z"/><path class="cls-14" d="M11.3,61.9V56.8c-2.4-8.9.6-13.1,10.2-13.2,8.6-.1,17.2-1.8,25.9-2.5,6.2-.5,10,2,9.5,9.1a22.31,22.31,0,0,0,.9,6.8c1.6,7.4-1.7,11-8.8,11.8-10.1,1.1-20.1,2-30.2,3.1C10.6,72.8,12.6,66.1,11.3,61.9Z"/><path class="cls-12" d="M116,44.5c.1,1.7.1,3.5.2,5.2,1.5,9.2-2.5,12.4-11.6,12.5-7.5,0-14.9,1.7-22.3,3-7.9,1.3-11.2-2.8-12.7-9.7-2.1-9.6-.2-15.9,6.4-17.6C86.7,35.1,97.8,35,108.7,34,117.2,33.3,112.7,41.6,116,44.5Z"/><path class="cls-9" d="M1107.6,235.6c.1,6.1-12.6,13.5-18,10.6-1.5-.8-1.5-2.3-1.5-3.8.1-2,1-3.6,3-3.7,7.8-.1,8.7-6,9-11.4.3-6,2.7-8.6,8.5-8,7,.7,10.5-2.7,10.8-9.3.2-4.8,1.3-6.8,6.8-5.3,7.2,2,13.8,1.2,16.8-7.5,1.6-4.7,5.1-5,9-2.2,5,3.6,10,6.6,14-1.4,1-2,3.1-2.6,5.3-1.4a3.73,3.73,0,0,1,2,4.4c-1.1,6.4-12.7,13-18,9.4s-7.9-1.6-10.3,2.8-5.1,7.4-11,5.4c-5-1.7-8.4,1.2-9.8,6-1.5,5.1-4.5,8.1-10,7.6C1108.3,227.5,1106.3,230.1,1107.6,235.6Z"/><path class="cls-9" d="M1187,216.7c.1,7.4-11.1,14.9-17.1,12-4.2-2.1-7.3-4.6-10.5,2.2-2.2,4.6-7,9.6-14.3,5.1-4.1-2.5-6.2.1-6.6,4.6-.5,6.2-3.6,9.5-10.3,8.5-5.3-.8-6.8,1.9-7.3,7-.8,8.4-8.2,13.8-16.5,13.2q-3.15-.15-3.6-3c-.4-2.4.9-4.3,3-4.6,7.8-1.2,9.6-5.9,8.9-13-.5-5.6,3.3-7.1,7.9-6.6,7,.8,10.8-1.7,11.8-9.1.6-4.8,3.6-7.5,9.5-5.5s11,.2,13.4-6.2c1.9-5.1,5.5-6.1,9.5-3.4,6.5,4.3,11.2,2,15.9-2.7,1.2-1.2,2.5-2.9,4.4-1.5C1186,214.4,1186.5,215.9,1187,216.7Z"/><path class="cls-9" d="M1376,330.7c-1.3,3.2-2.5,5.9-6.3,4.5-6.7-2.5-11.2-12.1-8.4-18.9,1.8-4.3,1.2-7.3-2.9-9.4-5.9-3-7.7-7.3-5.2-13.6,1.3-3.3-.2-5.3-3.9-6.1-6.2-1.3-10.7-4.3-9.6-11.9.7-5-3-5.3-6.8-5.5-8-.4-14.5-10.1-12.2-17.7.5-1.5,1.3-2.6,2.9-2.8a4.14,4.14,0,0,1,4.8,4c.1,8.2,5.3,8.5,11.2,7.9,6.1-.6,7.9,2.6,7.1,7.8-1.1,7.4,2.2,10.7,9.2,11.5,5.7.7,9.2,3,6,9.6-2.7,5.7-1.1,10,4.7,12.9,4.1,2.1,7.8,4.8,4.5,10.1-3.5,5.6-2.3,10.1,2.4,14.3A20.44,20.44,0,0,1,1376,330.7Z"/><path class="cls-15" d="M874.8,158.1c3.1,2.3,6.4,4.4,7.1,8.7l-.1.1c-4.4-1.7-8.6-4.5-13.1.7-5.8,6.8-12.5,12.9-18.5,19.5-7.2,7.9-6.8,17.5.5,24.8,5.9,5.8,17,6,23.7-.2,7.3-6.7,14-14,21.1-20.8,3-2.9,3-4.7-.2-7.7-4.5-4.3-10-8-11.8-14.5l.1-.1c8.3,3.7,13.1,11.4,19.3,17.4a91.11,91.11,0,0,1-33.5,32.9c-7.8,4.5-16.9,1.1-23.7-6.9-5.1-6.1-6.1-17.8-.8-24.3C853.8,176.7,863.4,166.5,874.8,158.1Z"/><path class="cls-12" d="M812,39.1c-.4-6.4,4.8-5.7,8.6-6.8,4,.5,9.2-1.9,11.5,3.2,1.6,3.8,1.5,8.1-2.5,10.8s-7.8,1.4-10.5-2.1C817.2,41.8,815.9,38.8,812,39.1Z"/><path class="cls-9" d="M733.1.8c-1.1,2.3-2.3,4.6-3.4,6.9-2.1-2.5-4.6-1.7-7.1-.9-5.7,1.8-7.7-2.3-9.5-6.3s1-6.6,3.8-8.5c4-2.8,7.2.4,9.8,2.7C728.9-3.2,729.1.8,733.1.8Z"/><path class="cls-9" d="M752.4,60c6.1-1.3,6,3.5,7,7.2-.1,2.3.2,4.8-.4,6.9a7.24,7.24,0,0,1-7.2,5.3c-3.4.1-5.3-1.6-6.8-4.5-1.6-3.1-.7-5.4,1.4-7.9C748.4,64.7,752.3,63.9,752.4,60Z"/><path class="cls-14" d="M478,361.1c-.5,1.7-.9,5.1-2.5,7.7-5.2,8.7-.1,12.5,6.8,15.7,4.1,1.8,10.6.6,12,5.5,1.3,4.5-2.1,9.4-3.9,13.9-4.3,10.6-4.4,10.6-15,6.2-12.9-5.3-13-5.3-18,7.8-4.4,11.4-4.4,11.4-16,7.3-1.9-.7-3.8-1.3-5.8-1.9-5.1-1.5-6.5-4.2-5.1-9.8s7.4-11.2,4.3-17.1c-3-5.7-10.8-4.6-16.2-7.2-4.1-1.9-5-3.5-3.8-7.8,5.8-19.9,5.7-20.1,25.2-12.3,5,2,7.7,1.7,8.7-3.9a7.58,7.58,0,0,1,.6-1.6c7.7-21.8,3.5-16.6,24.2-10.2C478,354.8,478,355.5,478,361.1Z"/><path class="cls-6" d="M628.3,409.8c-4-13.5-8.5-26.9-11.8-40.6-3-12.3-.1-15.7,12.2-19.3Q715,324.7,801.3,299.4c13.3-3.9,26.6-7.8,39.9-11.5,9.9-2.7,15-.2,17.9,9.7,3.8,13.3,9.9,26.1,10.4,40.3-2.8,14.9-5.7,30.2-21.3,37.4-8.3,3.9-17.5,5.9-26.4,8.5-8,2.4-16.2,4.4-24.2,6.6-5.4-11.8-5.4-11.8-17.7-8.6s-13.1,3.4-16.4-10.5c-2.2-9.5-6.4-10.8-14.8-8.5-15.5,4.2-16,4-10.5,20,2.8,8.3.6,11.4-7.6,13.3-14.3,3.2-14.2,3.6-13,17.1-16,6.9-33.2,9.9-49.9,14.6-8.4,2.4-15.9-.1-22.6-5.6C639.6,417.9,633.9,413.9,628.3,409.8Z"/><path class="cls-8" d="M717.5,413.2c-1.2-13.5-1.3-13.9,13-17.1,8.2-1.8,10.4-5,7.6-13.3-5.5-16-5-15.8,10.5-20,8.4-2.3,12.6-1,14.8,8.5,3.3,13.9,4.1,13.7,16.4,10.5s12.4-3.2,17.7,8.6c1.1,13.7,1.2,14.1-12,17.6-8,2.2-10.9,3.8-7.9,13.8,5.6,18.4,8,13.1-10.7,19.9-7.7,2.9-12.6,2.1-13.6-7.1-.1-.8-.6-1.6-.8-2.5-4.2-12.7-4.2-12.9-17-9-8.3,2.6-14.9,3.3-15.4-8.2C720.2,414.4,718.5,413.8,717.5,413.2Z"/><path class="cls-5" d="M686,324.1c-.8-9,5-13.6,12.2-15.8,19.7-6.1,39.4-11.8,59.4-16.8,6.4-1.6,14.3-2.7,17.7,6.3-9.8,6.1-21.4,6.1-32,10C724.7,314.5,705.2,318.8,686,324.1Z"/><path class="cls-14" d="M365.4,172.6c.3-13.9,3.9-26.9,1.9-41.9-10.2,17.7-19.6,34.1-29.1,50.5-.7-.2-1.4-.4-2.2-.7,2.9-24.4,5.8-48.8,8.9-74.9-6.6,5.8-8.5,12.7-12.2,18.4-5.9,9-11.2,18.4-16.5,27.7-2.4,4.4-5.6,5.4-10.2,4.1-22.6-6.6-45.1-13.4-67.8-19.6-8.1-2.2-9.4-8-11.1-14.7-7-27.5,7.3-51.7,26.5-61.4,28-14.1,62.7-.6,73.1,29.1,3.4,9.8,3.4,9.8,11.2,3.3,20.1-16.8,50.6-14.8,69.7,4.6,18.2,18.6,19.4,49.8,3.4,69.4-7.2,8.8-14.5,12.8-26.2,8.3C379.2,172.7,372.9,168.3,365.4,172.6Z"/><path class="cls-12" d="M234.2,141.5c22.2,6.5,43.9,12.6,65.5,19.1,15.3,4.6,15.2,4.8,23.3-8.5,3.2-5.2,6.6-10.2,10-15.3.1-.1.5,0,2.1.1-3.1,24.9-6.2,49.7-9.3,74.6.6.3,1.2.5,1.8.8,10-17,19.9-34.1,30.6-52.3,3,11.4-.7,21.5-.4,32.4,7.2-3.3,7.9-13.1,15.1-13.9,6.5-.7,12.7,2.8,19.7,5.4-12.2,12.2-26.5,19.9-40.7,27.5-17.4,9.3-35.6,17.3-53.3,26-6.7,3.3-11.4,3-15.7-4.3-15.5-25.9-33.2-50.6-45-78.7C236,150.5,234.3,146.7,234.2,141.5Z"/><path class="cls-12" d="M637.5,185.5c-10.1-12.7-21.7-21.4-31.5-31.8-6.4-6.8-12.9-13.4-19.5-19.9-3.6-3.5-4-7.1-.5-10.6,3.4-3.3,6.5-.9,9.1,1.6,10.4,10.1,20.7,20.3,31.2,30.4,1.7,1.6,3.5,5.5,6,3.3,3-2.6-1.2-4.5-2.7-6.1q-18-18.3-36.5-36.2c-3.8-3.7-7.8-7.7-3.1-12.4,4.2-4.3,8.5-.9,12,2.6,12.3,12.4,24.6,24.8,37,37,1.5,1.5,3.2,5.5,6,2.4,1.9-2.1-.9-4.1-2.5-5.7-9.5-9.5-19-18.9-28.4-28.4-3.2-3.2-8-6.9-3.3-11.7,4.9-5,8.9-.5,12.5,3,9.1,9,18.1,18.1,27.2,27.1,1.7,1.7,3.8,5.1,6.3,2.3,2-2.1-1.3-4-2.8-5.5-4.6-4.8-9.4-9.5-14.1-14.3-2.5-2.6-3.7-5.3-.8-8.3s6.5-3.5,9.2-.4c18.5,20.4,41.6,36.4,56.1,60.6,4.3,7.2,9.2,14.2,15.7,19.7,5.8,4.9,5.3,10.1,1.7,16.2-5.6,9.5-13.3,16.9-22.2,23-6.1,4.1-12.3,5.9-19,0-5.3-4.7-12-7.1-19.1-8a4.67,4.67,0,0,1-1.7-.3c-18.2-10.6-38-15.1-58.9-15.6-3.4-.1-5.6-2.8-5.8-6.6-.1-3.6,2.3-5.1,5.4-5.8,10.1-2.4,20.3-.7,30.4-1.3C632.5,186,633.9,185.8,637.5,185.5Z"/><path class="cls-16" d="M584.8,114.2c-10.9,12.3-6.2,20.6,4.2,29.6,11.5,9.8,21.4,21.5,32.1,32.2,1.4,1.4,2.1,2.7,1.3,4.5-.9,2-2.8,2.2-4.4,1.6-5.2-1.9-10.2-.2-15.4,0-6.8.3-10.6,3.1-13.3,9-2.4,5.2-13.9,9.1-18.4,6-9.8-6.7-19.5-13.5-25.4-24.4-3.1-5.8-3.6-9.9,2.3-15,9.6-8.4,15.7-19.9,22.8-30.4A37.54,37.54,0,0,1,584.8,114.2Z"/><path class="cls-16" d="M631.4,102.1a5.06,5.06,0,0,1-5.1-2.5c-1.2-2.1-.9-3.7.5-5.5,6.6-8.1,14.5-14.8,22.1-21.9a5.4,5.4,0,0,1,6.5-.7c2.4,1.3,2.7,3.6,2.5,6C657.6,82.9,637,102,631.4,102.1Z"/><path class="cls-16" d="M673.4,74.5c2.2.6,4.5,1.3,5.2,3.8a7,7,0,0,1-1.7,7.2c-5.5,5.5-10.9,11-16.4,16.5-1.3,1.3-3,4.1-4.7,1.7-1.9-2.6-7.8-4.4-5.5-7.7,5.8-8.2,13.2-15.1,21.3-21.3A3.59,3.59,0,0,1,673.4,74.5Z"/><path class="cls-16" d="M629.9,82.6a25.14,25.14,0,0,1-13,10.4c-4.1,1.3-8.6.9-11.2,5.3a2.17,2.17,0,0,1-3.6.6,2.41,2.41,0,0,1-.3-3.8c6.1-6.2,12-12.7,18.7-18.2C624.5,73.6,630.1,76.9,629.9,82.6Z"/><path class="cls-16" d="M676.9,95.2c4.7,0,7.2,1.4,7.2,5.5,0,4.5-10.5,13.9-15.1,13.7a6.89,6.89,0,0,1-6.3-3.9c-1.5-2.8.8-4.4,2.5-5.8C669.2,101.3,671.7,95.8,676.9,95.2Z"/><path class="cls-17" d="M1026.9-36c4.6,20.4,10.1,40.6,13.6,61.1,3.8,22.4-12.3,45.1-33.8,50.2-23.6,5.6-48.3-7.3-54.8-30.2-5.7-20.3-9.5-41.2-14.1-61.8l15.7-3.6c1.4,7.7,5.3,10.6,13.1,7.3,6-2.5,9.6-1.2,10.1,6.4.2,3.5.3,8.9,5.3,9.9,9.1,1.8,15.5-5.3,13.8-14.6-.8-4.5-1.5-8.9,5.3-9.1,9.2-.2,12.6-4.8,10.1-13.7C1016.6-33.5,1021.6-35.4,1026.9-36Z"/><path class="cls-15" d="M1021.8,361c-21.4,0-36.6-15.3-36.6-36.8,0-18.3,17.4-35,36.6-34.9,19.5,0,36.3,16.7,36.5,35.8C1058.5,343.6,1042.2,363,1021.8,361Zm.3-66.6c-18.3,0-32,13.1-32,30.6,0,18.7,13.2,32.3,31.4,32.4,18.9,0,30.8-12.8,31.8-31.9C1054.1,310.5,1038.6,291.9,1022.1,294.4Z"/><path class="cls-7" d="M1336.3,328.7c0,18.4-8.9,32.6-21.6,45-25.2,24.8-55.6,41.8-86.9,57.3-7,3.5-14.1,6.9-21.1,10.5-2.8,1.4-5.2,2.1-7.5-1.1-27-37.5-55.1-74.5-66.8-120.5-9.9-39.1,19.8-70.8,54.7-69,23.9,1.2,40,14.4,48.4,36.5,2.9,7.7,4.9,7,10.4,2.1,17.8-15.9,38.1-18.6,59.9-9C1323.4,288.2,1336.2,308.5,1336.3,328.7Z"/><path class="cls-12" d="M544.7-13.1c-.8,6.9,5.8,8.8,8.7,13.2,1.4,2.1,5.7,3.2,2.8,7-2.2,2.9-4.4,1.8-6.7-.1-1.1-.9-2.7-1.5-3.9-.1s-.1,2.7.9,3.8c1.9,1.9,2.8,3.6.3,5.8-3,2.6-4.7.3-6.6-1.5-2.3-2.2-4.4-4.6-6.9-6.7-1.5-1.3-2.8-5-5.4-2-2.2,2.4.7,4.1,2.2,5.7s2.9,2.9,4.2,4.4c1.9,2.3,6.3,4,4,7.7-3.1,5-5.6-1.8-8.6-1.3-.4.7-.7,1.2-1,1.7-1.5,3,5.9,6.1.3,8.8-4.2,2-5.7-2.8-8.4-4.6-2.9-2-5.7-8.2-8.3-5.4-3.5,3.8,3.4,6,5.2,9.3,1.7,3.1,8.3,4.7,3.4,9.7-4.7,4.7-8.3,1.2-11.8-2.3-5.9-6-11.9-12-17.9-18-2.6-2.6-4-5.3-.9-8.3,13.3-13,25.6-27,39.9-39a4.26,4.26,0,0,1,1.7-.4A66.45,66.45,0,0,1,544.7-13.1Z"/><path class="cls-15" d="M881.9,166.7l1.7,1.7-.1.1A9.34,9.34,0,0,1,881.9,166.7Z"/><path class="cls-6" d="M252.6,406.2c.3-8.5,7.9-15.8,15.7-15.2a15.63,15.63,0,0,1,14,16c-.3,7.9-7.8,15.1-15.4,14.7S252.2,413.8,252.6,406.2Z"/><path class="cls-14" d="M741.9-16.6c.3,3.2,2.7,3.4,5.1,3.5,8.1.3,21.9-9.1,24.9-17.7,8.2,14.2,19.8,19.7,36.4,15.1-5,7.2-2.3,13.4.9,20.1s5.3,13.7,15.1,15.3c-9.3,1.9-11.9,8.2-15.2,15.3-3.6,7.6-4.8,13.7.7,21.7-8.1-7.2-14.7-3.7-22-.3-6.9,3.2-14.3,5-13.7,15.5-7.5-15.1-23.4-21.8-38.7-14.6,6.3-8.7,3.6-15.2,1.1-22.4-2.6-7.7-6-13-15.7-13.7,4.1-4.3,10.4-3.3,12.5-8.4,1.9-4.5,2.4-9.5,5.4-13.7,2.6-3.5,1.6-7.4-.6-10.6C733.9-17.6,738.4-16.6,741.9-16.6Z"/><path class="cls-16" d="M881.8,166.8l1.7,1.7c1.8,6.5,7.3,10.2,11.8,14.5,3.1,3,3.1,4.8.2,7.7-7.1,6.8-13.8,14.1-21.1,20.8-6.7,6.2-17.9,6-23.7.2-7.3-7.3-7.6-16.9-.5-24.8,6-6.6,12.7-12.7,18.5-19.5C873.2,162.3,877.3,165.1,881.8,166.8Z"/><path class="cls-8" d="M953.5-20.2c-3.1-6.8-1.3-10.4,6.5-11.9,10.1-2,11.1-3.7,7.8-13.7-2.2-6.8.3-8.1,6.4-9.6,8.8-2.2,13.6-.5,14.1,9.2.2,5.4,2.8,6.3,8.1,5.5,5.7-.9,13.5-3.4,15,6.5,2.5,8.9-.8,13.5-10.1,13.7-6.8.2-6.1,4.6-5.3,9.1,1.7,9.3-4.7,16.4-13.8,14.6-5-1-5.1-6.4-5.3-9.9-.5-7.6-4.2-9-10.1-6.4C958.8-9.6,954.9-12.5,953.5-20.2Z"/><path class="cls-6" d="M1022.1,294.4c16.5-2.5,32,16.1,31.2,31-1,19.1-12.9,31.9-31.8,31.9-18.1,0-31.3-13.7-31.4-32.4C990.1,307.5,1003.8,294.4,1022.1,294.4Zm21.5,29.1c-1.3-3.4-1.9-7.5-4.1-10.3s-4.5.8-6.8,1.6c-4.8,1.6-8.1.1-9-5-.8-4.3-1.9-7.6-7.3-4.8-3.9,2-10.7,1.6-6.6,9.3,2.3,4.3,1.9,8.3-3.6,9.4-5,1-6.4,3.5-5,8,1.4,4.7,3.8,7.7,9.6,5.4,4.1-1.7,7.6-.2,8.8,4.4,1.4,5.2,4.4,6.1,9.2,4.7,5.3-1.6,6.1-4.9,4.3-9.3-2.2-5.8.7-8.1,5.8-9C1041.3,327.2,1043.5,326.6,1043.6,323.5Z"/><path class="cls-12" d="M1043.6,323.5c-.2,3.1-2.4,3.7-4.8,4.1-5.1.9-8,3.2-5.8,9,1.7,4.5,1,7.8-4.3,9.3-4.8,1.4-7.8.5-9.2-4.7-1.2-4.6-4.7-6.1-8.8-4.4-5.8,2.3-8.2-.6-9.6-5.4-1.4-4.4,0-7,5-8,5.5-1.1,5.9-5.1,3.6-9.4-4.1-7.7,2.7-7.4,6.6-9.3,5.4-2.7,6.5.5,7.3,4.8,1,5.1,4.2,6.6,9,5,2.3-.7,4.7-4.3,6.8-1.6C1041.7,316.1,1042.3,320.1,1043.6,323.5Z"/></g></g><rect class="cls-18" width="1400" height="100"/></g></svg>